<?xml version="1.0" encoding="iso-8859-1"?>
<!-- Generator: Adobe Illustrator 21.1.0, SVG Export Plug-In . SVG Version: 6.00 Build 0)  -->
<svg version="1.1" id="Layer_2" xmlns="http://www.w3.org/2000/svg" xmlns:xlink="http://www.w3.org/1999/xlink" x="0px" y="0px"
	 viewBox="0 0 300 300" style="enable-background:new 0 0 300 300;" xml:space="preserve">
<g>
	<path style="fill:#FC7ED0;" d="M255.406,126.333c-1.176-18.811-12.33-34.902-24.435-47.013
		c10.257-7.905,20.803-35.983,1.772-30.274c-10.328,3.098-14.604,11.349-16.332,18.608c-3.953-2.249-8.153-3.978-12.498-5.165
		c9.931-8.817,19.272-35.023,0.826-29.489c-15.228,4.568-17.313,20.334-17.442,27.603c-4.79,0.193-9.591,1.011-14.279,2.485
		l-7.736,2.432C153.679,41.226,107.8-50.17,131.794,76.05L78.897,92.683c-1.427,0.397-2.837,0.836-4.222,1.328l-0.222,0.07
		l0.004,0.004c-24.708,8.866-42.384,32.489-42.384,60.248c0,35.346,28.654,64,64,64c20.71,0,39.112-9.846,50.81-25.102
		c-4.092,28.357-43.942,41.505-29.477,70.436C134.739,298.333,216.073,285,244.073,273S258.073,169,255.406,126.333z M193.406,133
		c-9.205,0-16.667-7.462-16.667-16.667c0-9.205,7.462-16.667,16.667-16.667s16.667,7.462,16.667,16.667
		C210.073,125.538,202.611,133,193.406,133z"/>
	<radialGradient id="SVGID_1_" cx="238" cy="247.6566" r="126.5889" gradientUnits="userSpaceOnUse">
		<stop  offset="0" style="stop-color:#8600D4"/>
		<stop  offset="1" style="stop-color:#9E32DC;stop-opacity:0"/>
	</radialGradient>
	<path style="fill:url(#SVGID_1_);" d="M255.406,126.333c-1.176-18.811-12.33-34.902-24.435-47.013
		c10.257-7.905,20.803-35.983,1.772-30.274c-10.328,3.098-14.604,11.349-16.332,18.608c-3.953-2.249-8.153-3.978-12.498-5.165
		c9.931-8.817,19.272-35.023,0.826-29.489c-15.228,4.568-17.313,20.334-17.442,27.603c-4.79,0.193-9.591,1.011-14.279,2.485
		l-7.736,2.432C153.679,41.226,107.8-50.17,131.794,76.05L78.897,92.683c-1.427,0.397-2.837,0.836-4.222,1.328l-0.222,0.07
		l0.004,0.004c-24.708,8.866-42.384,32.489-42.384,60.248c0,35.346,28.654,64,64,64c20.71,0,39.112-9.846,50.81-25.102
		c-4.092,28.357-43.942,41.505-29.477,70.436C134.739,298.333,216.073,285,244.073,273S258.073,169,255.406,126.333z M193.406,133
		c-9.205,0-16.667-7.462-16.667-16.667c0-9.205,7.462-16.667,16.667-16.667s16.667,7.462,16.667,16.667
		C210.073,125.538,202.611,133,193.406,133z"/>
	<radialGradient id="SVGID_2_" cx="94.6667" cy="78.9899" r="126.5889" gradientUnits="userSpaceOnUse">
		<stop  offset="0" style="stop-color:#FFFA2A"/>
		<stop  offset="1" style="stop-color:#E97500;stop-opacity:0"/>
	</radialGradient>
	<path style="fill:url(#SVGID_2_);" d="M255.406,126.333c-1.176-18.811-12.33-34.902-24.435-47.013
		c10.257-7.905,20.803-35.983,1.772-30.274c-10.328,3.098-14.604,11.349-16.332,18.608c-3.953-2.249-8.153-3.978-12.498-5.165
		c9.931-8.817,19.272-35.023,0.826-29.489c-15.228,4.568-17.313,20.334-17.442,27.603c-4.79,0.193-9.591,1.011-14.279,2.485
		l-7.736,2.432C153.679,41.226,107.8-50.17,131.794,76.05L78.897,92.683c-1.427,0.397-2.837,0.836-4.222,1.328l-0.222,0.07
		l0.004,0.004c-24.708,8.866-42.384,32.489-42.384,60.248c0,35.346,28.654,64,64,64c20.71,0,39.112-9.846,50.81-25.102
		c-4.092,28.357-43.942,41.505-29.477,70.436C134.739,298.333,216.073,285,244.073,273S258.073,169,255.406,126.333z M193.406,133
		c-9.205,0-16.667-7.462-16.667-16.667c0-9.205,7.462-16.667,16.667-16.667s16.667,7.462,16.667,16.667
		C210.073,125.538,202.611,133,193.406,133z"/>
	<radialGradient id="SVGID_3_" cx="271.3333" cy="120.9899" r="126.5889" gradientUnits="userSpaceOnUse">
		<stop  offset="0" style="stop-color:#89FA81"/>
		<stop  offset="1" style="stop-color:#15D4FF;stop-opacity:0"/>
	</radialGradient>
	<path style="fill:url(#SVGID_3_);" d="M255.406,126.333c-1.176-18.811-12.33-34.902-24.435-47.013
		c10.257-7.905,20.803-35.983,1.772-30.274c-10.328,3.098-14.604,11.349-16.332,18.608c-3.953-2.249-8.153-3.978-12.498-5.165
		c9.931-8.817,19.272-35.023,0.826-29.489c-15.228,4.568-17.313,20.334-17.442,27.603c-4.79,0.193-9.591,1.011-14.279,2.485
		l-7.736,2.432C153.679,41.226,107.8-50.17,131.794,76.05L78.897,92.683c-1.427,0.397-2.837,0.836-4.222,1.328l-0.222,0.07
		l0.004,0.004c-24.708,8.866-42.384,32.489-42.384,60.248c0,35.346,28.654,64,64,64c20.71,0,39.112-9.846,50.81-25.102
		c-4.092,28.357-43.942,41.505-29.477,70.436C134.739,298.333,216.073,285,244.073,273S258.073,169,255.406,126.333z M193.406,133
		c-9.205,0-16.667-7.462-16.667-16.667c0-9.205,7.462-16.667,16.667-16.667s16.667,7.462,16.667,16.667
		C210.073,125.538,202.611,133,193.406,133z"/>
</g>
</svg>
