<?xml version="1.0" encoding="iso-8859-1"?>
<!-- Generator: Adobe Illustrator 21.1.0, SVG Export Plug-In . SVG Version: 6.00 Build 0)  -->
<svg version="1.1" id="Layer_3" xmlns="http://www.w3.org/2000/svg" xmlns:xlink="http://www.w3.org/1999/xlink" x="0px" y="0px"
	 viewBox="0 0 300 300" style="enable-background:new 0 0 300 300;" xml:space="preserve">
<g>
	<radialGradient id="SVGID_1_" cx="78.9592" cy="144.5797" r="61.0261" gradientUnits="userSpaceOnUse">
		<stop  offset="0" style="stop-color:#F0FFAA"/>
		<stop  offset="0.1456" style="stop-color:#F2E9AB"/>
		<stop  offset="1" style="stop-color:#FF6AB4"/>
	</radialGradient>
	<path style="fill:url(#SVGID_1_);" d="M131.815,135.283V94.035c0-3.467-2.836-6.303-6.303-6.303H32.407
		c-3.467,0-6.303,2.836-6.303,6.303v41.249c-6.672,0-12.081,6.584-12.081,14.707c0,8.122,5.409,14.707,12.081,14.707v0
		c0,20.202,16.529,36.731,36.731,36.731h32.248c20.202,0,36.731-16.529,36.731-36.731v0c6.672,0,12.081-6.584,12.081-14.707
		C143.895,141.868,138.486,135.283,131.815,135.283z"/>
	
		<radialGradient id="SVGID_2_" cx="80.8776" cy="222.2392" r="80.6903" gradientTransform="matrix(1 0 0 0.6342 0 81.2897)" gradientUnits="userSpaceOnUse">
		<stop  offset="0" style="stop-color:#6AC6FF"/>
		<stop  offset="0.1515" style="stop-color:#91B1FF"/>
		<stop  offset="0.3127" style="stop-color:#B39FFF"/>
		<stop  offset="0.4775" style="stop-color:#CE91FF"/>
		<stop  offset="0.645" style="stop-color:#E187FF"/>
		<stop  offset="0.8169" style="stop-color:#EC81FF"/>
		<stop  offset="1" style="stop-color:#F07FFF"/>
	</radialGradient>
	<path style="fill:url(#SVGID_2_);" d="M78.959,214.334c-27.072,0-49.48,16.378-53.307,37.714c-0.606,3.377,1.967,6.49,5.398,6.49
		h95.818c3.431,0,6.004-3.113,5.398-6.49C128.44,230.712,106.031,214.334,78.959,214.334z"/>
	
		<radialGradient id="SVGID_3_" cx="72.7556" cy="92.0319" r="57.0226" gradientTransform="matrix(1 -0.0055 0.0059 1.0705 -0.4997 -2.6531)" gradientUnits="userSpaceOnUse">
		<stop  offset="0" style="stop-color:#6A80FF"/>
		<stop  offset="0.258" style="stop-color:#6B7CFF"/>
		<stop  offset="0.5001" style="stop-color:#7071FF"/>
		<stop  offset="0.736" style="stop-color:#775EFF"/>
		<stop  offset="0.9666" style="stop-color:#8143FF"/>
		<stop  offset="1" style="stop-color:#833FFF"/>
	</radialGradient>
	<path style="fill:url(#SVGID_3_);" d="M28.1,146.757l12.517-35.24c0.404-1.137,1.481-1.828,2.608-1.663
		c8.069,1.179,40.039,5.25,64.49-0.199c1.157-0.258,2.319,0.373,2.774,1.542c2.529,6.484,10.778,26.92,17.67,35.846
		c1.403,1.817,4.166,0.82,4.306-1.531l4.007-67.638c0.087-1.467-0.965-2.724-2.337-2.784c-15.445-0.668-97.357-5.361-98.296-29.782
		c-0.088-2.281-2.722-3.296-4.201-1.652C18.395,58.378-7.294,96.6,23.781,147.281C24.871,149.059,27.395,148.744,28.1,146.757z"/>
	<radialGradient id="SVGID_4_" cx="226.0642" cy="144.0329" r="61.2815" gradientUnits="userSpaceOnUse">
		<stop  offset="0" style="stop-color:#F7D4FF"/>
		<stop  offset="0.3837" style="stop-color:#E7B0FF"/>
		<stop  offset="1" style="stop-color:#CA70FF"/>
	</radialGradient>
	<path style="fill:url(#SVGID_4_);" d="M278.919,135.283V92.941c0-3.467-2.836-6.303-6.303-6.303h-93.105
		c-3.467,0-6.303,2.836-6.303,6.303v42.342c-6.672,0-12.081,6.584-12.081,14.707c0,8.122,5.409,14.707,12.081,14.707v0
		c0,20.202,16.529,36.731,36.731,36.731h32.248c20.202,0,36.731-16.529,36.731-36.731v0c6.672,0,12.081-6.584,12.081-14.707
		C291,141.868,285.591,135.283,278.919,135.283z"/>
	
		<radialGradient id="SVGID_5_" cx="227.9872" cy="222.2392" r="80.8186" gradientTransform="matrix(1 0 0 0.6342 0 81.2897)" gradientUnits="userSpaceOnUse">
		<stop  offset="0" style="stop-color:#BFFFE8"/>
		<stop  offset="0.2272" style="stop-color:#BBFCE9"/>
		<stop  offset="0.4404" style="stop-color:#B0F5EC"/>
		<stop  offset="0.6482" style="stop-color:#9DE8F1"/>
		<stop  offset="0.8512" style="stop-color:#82D6F8"/>
		<stop  offset="1" style="stop-color:#6AC6FF"/>
	</radialGradient>
	<path style="fill:url(#SVGID_5_);" d="M226.064,214.334c-27.482,0-50.158,16.878-53.468,38.687
		c-0.441,2.906,1.842,5.517,4.782,5.517h97.373c2.939,0,5.223-2.611,4.782-5.517C276.223,231.212,253.546,214.334,226.064,214.334z"
		/>
	
		<radialGradient id="SVGID_6_" cx="224.6808" cy="95.557" r="52.9027" gradientTransform="matrix(1 0 0 1.1127 0 -5.6972)" gradientUnits="userSpaceOnUse">
		<stop  offset="0" style="stop-color:#FFE0AA"/>
		<stop  offset="0.2134" style="stop-color:#FFDCAB"/>
		<stop  offset="0.4137" style="stop-color:#FFD1AC"/>
		<stop  offset="0.6089" style="stop-color:#FFBEAF"/>
		<stop  offset="0.8008" style="stop-color:#FFA3B3"/>
		<stop  offset="0.9888" style="stop-color:#FF81B8"/>
		<stop  offset="1" style="stop-color:#FF7FB8"/>
	</radialGradient>
	<path style="fill:url(#SVGID_6_);" d="M175.444,147.052l13.885-47.124c0.245-0.833,0.944-1.396,1.732-1.396
		c0,0,32.527,18.592,67.421,0c0.668-0.356,1.434,0.52,1.703,1.307l16.028,46.883c0.682,1.993,3.312,1.615,3.515-0.506l6.182-64.378
		c0.051-0.532-0.083-1.06-0.384-1.477c-1.758-2.436-8.449-10.365-18.451-6.037c-0.644,0.279-1.372,0.101-1.888-0.41
		c-7.231-7.169-55.998-49.454-101.319,10.761c-0.349,0.464-0.496,1.085-0.399,1.68l8.45,60.43
		C172.259,148.853,174.855,149.05,175.444,147.052z"/>
	<path style="fill:#AA5AFF;" d="M94.833,243.995H60.792c-3.889,0-7.041-3.152-7.041-7.041v-65.759c0-3.889,3.152-7.041,7.041-7.041
		h34.042c3.889,0,7.041,3.152,7.041,7.041v65.759C101.874,240.842,98.722,243.995,94.833,243.995z"/>
	<path style="fill:#FF865C;" d="M243.085,243.995h-34.042c-3.889,0-7.041-3.152-7.041-7.041v-65.759
		c0-3.889,3.152-7.041,7.041-7.041h34.042c3.889,0,7.041,3.152,7.041,7.041v65.759C250.126,240.842,246.974,243.995,243.085,243.995
		z"/>
	<g>
		<g>
			<path style="fill:#B74FC6;" d="M106.475,219.706c-0.408,0-0.821-0.114-1.188-0.352c-1.014-0.657-1.302-2.012-0.645-3.025
				c9.735-15.004,0.735-23.733,0.347-24.098c-0.877-0.824-0.929-2.205-0.111-3.087c0.818-0.881,2.191-0.943,3.077-0.128
				c0.123,0.113,12.164,11.495,0.356,29.693C107.894,219.355,107.191,219.706,106.475,219.706z"/>
		</g>
		<g>
			<path style="fill:#B74FC6;" d="M118.201,224.594c-0.536,0-1.077-0.149-1.56-0.463c-1.331-0.863-1.709-2.641-0.846-3.971
				c12.778-19.696,0.965-31.154,0.456-31.632c-1.151-1.081-1.22-2.895-0.145-4.052c1.073-1.157,2.876-1.237,4.039-0.168
				c0.161,0.148,15.967,15.089,0.468,38.978C120.063,224.133,119.141,224.594,118.201,224.594z"/>
		</g>
		<g>
			<path style="fill:#B74FC6;" d="M130.858,231.095c-0.705,0-1.419-0.197-2.054-0.609c-1.752-1.136-2.251-3.478-1.114-5.23
				c16.827-25.936,1.27-41.025,0.6-41.654c-1.516-1.423-1.606-3.812-0.191-5.336c1.413-1.523,3.788-1.629,5.319-0.222
				c0.212,0.195,21.026,19.869,0.616,51.327C133.31,230.488,132.096,231.095,130.858,231.095z"/>
		</g>
	</g>
	<g>
		<g>
			<path style="fill:#ED3D95;" d="M193.594,188.442c0.408,0,0.821,0.114,1.188,0.352c1.014,0.657,1.302,2.012,0.645,3.025
				c-9.735,15.004-0.735,23.733-0.347,24.098c0.877,0.823,0.929,2.205,0.111,3.087c-0.818,0.881-2.191,0.943-3.077,0.128
				c-0.123-0.113-12.164-11.495-0.356-29.693C192.176,188.794,192.878,188.442,193.594,188.442z"/>
		</g>
		<g>
			<path style="fill:#ED3D95;" d="M181.869,183.554c0.536,0,1.077,0.149,1.56,0.463c1.331,0.863,1.709,2.641,0.846,3.971
				c-12.778,19.696-0.965,31.154-0.456,31.632c1.151,1.081,1.22,2.895,0.145,4.052c-1.073,1.157-2.876,1.237-4.039,0.168
				c-0.161-0.148-15.967-15.089-0.468-38.978C180.007,184.016,180.929,183.554,181.869,183.554z"/>
		</g>
		<g>
			<path style="fill:#ED3D95;" d="M169.212,177.053c0.705,0,1.419,0.197,2.054,0.609c1.752,1.136,2.251,3.478,1.114,5.23
				c-16.827,25.936-1.27,41.025-0.6,41.654c1.516,1.423,1.606,3.812,0.191,5.336c-1.413,1.523-3.788,1.629-5.319,0.222
				c-0.212-0.195-21.026-19.869-0.616-51.327C166.76,177.661,167.974,177.053,169.212,177.053z"/>
		</g>
	</g>
</g>
</svg>
