<?xml version="1.0" encoding="iso-8859-1"?>
<!-- Generator: Adobe Illustrator 21.1.0, SVG Export Plug-In . SVG Version: 6.00 Build 0)  -->
<svg version="1.1" id="Layer_3" xmlns="http://www.w3.org/2000/svg" xmlns:xlink="http://www.w3.org/1999/xlink" x="0px" y="0px"
	 viewBox="0 0 300 300" style="enable-background:new 0 0 300 300;" xml:space="preserve">
<linearGradient id="SVGID_1_" gradientUnits="userSpaceOnUse" x1="44.2617" y1="180.2745" x2="44.2617" y2="106.8872">
	<stop  offset="0" style="stop-color:#D37FFF"/>
	<stop  offset="0.0832" style="stop-color:#CC82FF"/>
	<stop  offset="0.2075" style="stop-color:#B78CFF"/>
	<stop  offset="0.3576" style="stop-color:#969CFF"/>
	<stop  offset="0.5265" style="stop-color:#68B1FF"/>
	<stop  offset="0.589" style="stop-color:#55BAFF"/>
	<stop  offset="1" style="stop-color:#7FFFDD"/>
</linearGradient>
<path style="fill:url(#SVGID_1_);" d="M77.22,155.778c0,6.723-2.407,12.486-7.217,17.29c-4.813,4.804-10.584,7.207-17.312,7.207
	H23.719c-3.366,0-6.276-1.21-8.732-3.63c-2.457-2.419-3.684-5.309-3.684-8.669v-48.69c0-3.426,1.227-6.35,3.684-8.769
	c2.456-2.42,5.366-3.63,8.732-3.63l10.397,0.101c6.729,0.068,12.416,2.487,17.06,7.259c4.643,4.771,6.966,10.583,6.966,17.438
	c5.585,1.075,10.16,3.882,13.728,8.418C75.436,144.639,77.22,149.865,77.22,155.778z M21.398,116.578
	c0-1.883-0.959-2.827-2.877-2.827s-2.877,0.943-2.877,2.827c0,2.019,0.958,3.029,2.877,3.029S21.398,118.597,21.398,116.578z
	 M21.499,167.151v-43.305c0-1.951-0.943-2.927-2.827-2.927c-2.019,0-3.028,0.976-3.028,2.927v43.305c0,0.808,0.303,1.514,0.908,2.12
	c0.605,0.606,1.312,0.908,2.119,0.908C20.555,170.18,21.499,169.17,21.499,167.151z"/>
<linearGradient id="SVGID_2_" gradientUnits="userSpaceOnUse" x1="84.791" y1="143.6819" x2="158.4809" y2="143.6819">
	<stop  offset="0" style="stop-color:#FF7F9B"/>
	<stop  offset="0.5303" style="stop-color:#FFB47F"/>
	<stop  offset="1" style="stop-color:#FFFDAA"/>
</linearGradient>
<path style="fill:url(#SVGID_2_);" d="M158.481,143.682c0,10.148-3.584,18.818-10.751,26.009
	c-7.168,7.191-15.866,10.785-26.095,10.785c-10.162,0-18.844-3.595-26.043-10.785c-7.202-7.191-10.801-15.861-10.801-26.009
	s3.6-18.817,10.801-26.008c7.2-7.191,15.881-10.787,26.043-10.787c10.161,0,18.842,3.596,26.044,10.787
	C154.88,124.865,158.481,133.534,158.481,143.682z M107.503,166.142c-3.769-2.423-6.78-5.618-9.034-9.59
	c-2.256-3.97-3.382-8.277-3.382-12.921c0-6.662,2.287-12.517,6.864-17.564c0.538-0.606,0.808-1.245,0.808-1.918
	c0-0.808-0.32-1.514-0.959-2.119c-0.64-0.606-1.362-0.909-2.17-0.909s-1.481,0.303-2.019,0.909
	c-5.519,6.124-8.278,13.325-8.278,21.602c0,5.653,1.363,10.902,4.088,15.747c2.726,4.845,6.375,8.716,10.953,11.609
	c0.538,0.337,1.076,0.505,1.616,0.505c0.807,0,1.479-0.303,2.019-0.908c0.537-0.606,0.807-1.312,0.807-2.12
	C108.816,167.454,108.377,166.682,107.503,166.142z M109.219,118.446c0-1.918-0.976-2.877-2.927-2.877
	c-1.952,0-2.927,0.959-2.927,2.877s0.975,2.877,2.927,2.877C108.243,121.322,109.219,120.364,109.219,118.446z"/>
<linearGradient id="SVGID_3_" gradientUnits="userSpaceOnUse" x1="166.9587" y1="143.5809" x2="230.1498" y2="143.5809">
	<stop  offset="0" style="stop-color:#FFFDAA"/>
	<stop  offset="0.5676" style="stop-color:#7FFFDD"/>
	<stop  offset="1" style="stop-color:#55BAFF"/>
</linearGradient>
<path style="fill:url(#SVGID_3_);" d="M230.15,119.286c0,3.629-6.394,15.053-19.18,34.274v14.416c0,3.36-1.228,6.249-3.684,8.669
	c-2.457,2.419-5.367,3.63-8.732,3.63c-3.365,0-6.258-1.21-8.681-3.63s-3.634-5.309-3.634-8.669v-13.609
	c-12.855-19.556-19.28-31.25-19.28-35.081c0-3.426,1.211-6.35,3.634-8.769c2.423-2.42,5.315-3.63,8.681-3.63h38.561
	c3.432,0,6.343,1.21,8.732,3.63C228.955,112.936,230.15,115.861,230.15,119.286z M178.668,116.578c0-1.883-0.976-2.827-2.927-2.827
	c-1.952,0-2.927,0.943-2.927,2.827c0,2.019,0.975,3.029,2.927,3.029C177.691,119.607,178.668,118.597,178.668,116.578z
	 M196.434,168.464v-15.243c0-0.47-0.136-0.941-0.405-1.413l-17.136-29.173c-0.541-0.941-1.352-1.413-2.434-1.413
	c-0.745,0-1.437,0.27-2.079,0.808c-0.642,0.539-0.962,1.211-0.962,2.019c0,0.539,0.167,1.077,0.505,1.615l16.656,28.365v14.435
	c0,1.953,0.993,2.928,2.98,2.928C195.475,171.391,196.434,170.417,196.434,168.464z"/>
<linearGradient id="SVGID_4_" gradientUnits="userSpaceOnUse" x1="237.8205" y1="143.5809" x2="288.6969" y2="143.5809">
	<stop  offset="0" style="stop-color:#FF7F9B"/>
	<stop  offset="0.5007" style="stop-color:#D37FFF"/>
	<stop  offset="1" style="stop-color:#55BAFF"/>
</linearGradient>
<path style="fill:url(#SVGID_4_);" d="M288.697,154.789c0,7.052-2.481,13.062-7.441,18.031c-4.96,4.97-10.926,7.454-17.896,7.454
	h-13.273c-3.419,0-6.318-1.212-8.697-3.634c-2.38-2.423-3.569-5.315-3.569-8.681c0-3.432,1.164-6.342,3.495-8.732
	c2.33-2.388,5.169-3.584,8.515-3.584h3.938c-4.719-1.678-8.557-4.65-11.514-8.915s-4.435-9.084-4.435-14.456
	c0-6.984,2.489-12.962,7.47-17.932c4.98-4.969,10.968-7.454,17.968-7.454h10.095c3.432,0,6.359,1.212,8.782,3.634
	c2.423,2.422,3.634,5.35,3.634,8.782c0,3.366-1.212,6.258-3.634,8.681c-2.423,2.423-5.35,3.634-8.782,3.634h-3.432
	c5.451,1.546,9.893,4.333,13.325,8.361C286.88,144.212,288.697,149.149,288.697,154.789z M258.615,145.852
	c-3.164-0.404-5.789-1.782-7.873-4.139c-2.087-2.354-3.13-5.181-3.13-8.479c0-2.355,0.606-4.508,1.818-6.46
	c0.335-0.538,0.505-1.043,0.505-1.514c0-0.808-0.317-1.479-0.948-2.019c-0.63-0.538-1.312-0.808-2.042-0.808
	c-1.063,0-1.895,0.505-2.493,1.514c-1.662,2.962-2.492,6.057-2.492,9.287c0,4.643,1.54,8.716,4.618,12.214
	c3.079,3.5,6.863,5.587,11.348,6.259c2.142,0.337,3.213-0.639,3.213-2.928C261.139,147.03,260.297,146.054,258.615,145.852z
	 M247.612,168.06c0-1.951-0.943-2.927-2.826-2.927c-1.885,0-2.827,0.976-2.827,2.927c0,1.953,0.941,2.928,2.827,2.928
	C246.669,170.988,247.612,170.013,247.612,168.06z M253.77,119.909c0-2.019-0.976-3.029-2.927-3.029
	c-1.952,0-2.927,1.01-2.927,3.029c0,1.952,0.975,2.927,2.927,2.927C252.794,122.837,253.77,121.862,253.77,119.909z"/>
<linearGradient id="SVGID_5_" gradientUnits="userSpaceOnUse" x1="44.2617" y1="99.2745" x2="44.2617" y2="25.8872">
	<stop  offset="0" style="stop-color:#FFFDAA"/>
	<stop  offset="0.5676" style="stop-color:#7FFFDD"/>
	<stop  offset="1" style="stop-color:#55BAFF"/>
</linearGradient>
<path style="fill:url(#SVGID_5_);" d="M77.22,74.778c0,6.723-2.407,12.486-7.217,17.29c-4.813,4.804-10.584,7.207-17.312,7.207
	H23.719c-3.366,0-6.276-1.21-8.732-3.63c-2.457-2.419-3.684-5.309-3.684-8.669v-48.69c0-3.426,1.227-6.35,3.684-8.769
	c2.456-2.42,5.366-3.63,8.732-3.63l10.397,0.101c6.729,0.068,12.416,2.487,17.06,7.259c4.643,4.771,6.966,10.583,6.966,17.438
	c5.585,1.075,10.16,3.882,13.728,8.418C75.436,63.639,77.22,68.865,77.22,74.778z M21.398,35.578c0-1.883-0.959-2.827-2.877-2.827
	s-2.877,0.943-2.877,2.827c0,2.019,0.958,3.029,2.877,3.029S21.398,37.597,21.398,35.578z M21.499,86.151V42.846
	c0-1.951-0.943-2.927-2.827-2.927c-2.019,0-3.028,0.976-3.028,2.927v43.305c0,0.808,0.303,1.514,0.908,2.12
	c0.605,0.606,1.312,0.908,2.119,0.908C20.555,89.18,21.499,88.17,21.499,86.151z"/>
<linearGradient id="SVGID_6_" gradientUnits="userSpaceOnUse" x1="84.791" y1="62.6819" x2="158.4809" y2="62.6819">
	<stop  offset="0" style="stop-color:#FF7F9B"/>
	<stop  offset="0.5007" style="stop-color:#D37FFF"/>
	<stop  offset="1" style="stop-color:#55BAFF"/>
</linearGradient>
<path style="fill:url(#SVGID_6_);" d="M158.481,62.682c0,10.148-3.584,18.818-10.751,26.009
	c-7.168,7.191-15.866,10.785-26.095,10.785c-10.162,0-18.844-3.595-26.043-10.785C88.391,81.5,84.791,72.83,84.791,62.682
	s3.6-18.817,10.801-26.008c7.2-7.191,15.881-10.787,26.043-10.787c10.161,0,18.842,3.596,26.044,10.787
	C154.88,43.865,158.481,52.534,158.481,62.682z M107.503,85.142c-3.769-2.423-6.78-5.618-9.034-9.59
	c-2.256-3.97-3.382-8.277-3.382-12.921c0-6.662,2.287-12.517,6.864-17.564c0.538-0.606,0.808-1.245,0.808-1.918
	c0-0.808-0.32-1.514-0.959-2.119c-0.64-0.606-1.362-0.909-2.17-0.909s-1.481,0.303-2.019,0.909
	c-5.519,6.124-8.278,13.325-8.278,21.602c0,5.653,1.363,10.902,4.088,15.747c2.726,4.845,6.375,8.716,10.953,11.609
	c0.538,0.338,1.076,0.505,1.616,0.505c0.807,0,1.479-0.303,2.019-0.908c0.537-0.606,0.807-1.312,0.807-2.12
	C108.816,86.454,108.377,85.682,107.503,85.142z M109.219,37.446c0-1.918-0.976-2.877-2.927-2.877c-1.952,0-2.927,0.959-2.927,2.877
	s0.975,2.877,2.927,2.877C108.243,40.322,109.219,39.364,109.219,37.446z"/>
<linearGradient id="SVGID_7_" gradientUnits="userSpaceOnUse" x1="166.9587" y1="62.5809" x2="230.1498" y2="62.5809">
	<stop  offset="0" style="stop-color:#D37FFF"/>
	<stop  offset="0.0832" style="stop-color:#CC82FF"/>
	<stop  offset="0.2075" style="stop-color:#B78CFF"/>
	<stop  offset="0.3576" style="stop-color:#969CFF"/>
	<stop  offset="0.5265" style="stop-color:#68B1FF"/>
	<stop  offset="0.589" style="stop-color:#55BAFF"/>
	<stop  offset="1" style="stop-color:#7FFFDD"/>
</linearGradient>
<path style="fill:url(#SVGID_7_);" d="M230.15,38.286c0,3.629-6.394,15.053-19.18,34.274v14.416c0,3.36-1.228,6.249-3.684,8.669
	c-2.457,2.419-5.367,3.63-8.732,3.63c-3.365,0-6.258-1.21-8.681-3.63c-2.423-2.419-3.634-5.309-3.634-8.669V73.367
	c-12.855-19.556-19.28-31.25-19.28-35.081c0-3.426,1.211-6.35,3.634-8.769c2.423-2.42,5.315-3.63,8.681-3.63h38.561
	c3.432,0,6.343,1.21,8.732,3.63C228.955,31.936,230.15,34.861,230.15,38.286z M178.668,35.578c0-1.883-0.976-2.827-2.927-2.827
	c-1.952,0-2.927,0.943-2.927,2.827c0,2.019,0.975,3.029,2.927,3.029C177.691,38.607,178.668,37.597,178.668,35.578z M196.434,87.464
	V72.221c0-0.47-0.136-0.941-0.405-1.413l-17.136-29.173c-0.541-0.941-1.352-1.413-2.434-1.413c-0.745,0-1.437,0.27-2.079,0.808
	c-0.642,0.539-0.962,1.211-0.962,2.019c0,0.539,0.167,1.077,0.505,1.615l16.656,28.365v14.435c0,1.953,0.993,2.928,2.98,2.928
	C195.475,90.391,196.434,89.417,196.434,87.464z"/>
<linearGradient id="SVGID_8_" gradientUnits="userSpaceOnUse" x1="237.8205" y1="62.5809" x2="288.6969" y2="62.5809">
	<stop  offset="0" style="stop-color:#FF7F9B"/>
	<stop  offset="0.5303" style="stop-color:#FFB47F"/>
	<stop  offset="1" style="stop-color:#FFFDAA"/>
</linearGradient>
<path style="fill:url(#SVGID_8_);" d="M288.697,73.789c0,7.052-2.481,13.062-7.441,18.031c-4.96,4.97-10.926,7.454-17.896,7.454
	h-13.273c-3.419,0-6.318-1.212-8.697-3.634c-2.38-2.423-3.569-5.315-3.569-8.681c0-3.432,1.164-6.342,3.495-8.732
	c2.33-2.388,5.169-3.584,8.515-3.584h3.938c-4.719-1.678-8.557-4.65-11.514-8.915c-2.957-4.265-4.435-9.084-4.435-14.456
	c0-6.984,2.489-12.962,7.47-17.932c4.98-4.969,10.968-7.454,17.968-7.454h10.095c3.432,0,6.359,1.212,8.782,3.634
	c2.423,2.422,3.634,5.35,3.634,8.782c0,3.366-1.212,6.258-3.634,8.681c-2.423,2.423-5.35,3.634-8.782,3.634h-3.432
	c5.451,1.546,9.893,4.333,13.325,8.361C286.88,63.212,288.697,68.149,288.697,73.789z M258.615,64.852
	c-3.164-0.404-5.789-1.782-7.873-4.139c-2.087-2.354-3.13-5.181-3.13-8.479c0-2.355,0.606-4.508,1.818-6.46
	c0.335-0.538,0.505-1.043,0.505-1.514c0-0.808-0.317-1.479-0.948-2.019c-0.63-0.538-1.312-0.808-2.042-0.808
	c-1.063,0-1.895,0.505-2.493,1.514c-1.662,2.962-2.492,6.057-2.492,9.287c0,4.643,1.54,8.716,4.618,12.214
	c3.079,3.5,6.863,5.587,11.348,6.259c2.142,0.337,3.213-0.639,3.213-2.928C261.139,66.03,260.297,65.054,258.615,64.852z
	 M247.612,87.06c0-1.951-0.943-2.927-2.826-2.927c-1.885,0-2.827,0.976-2.827,2.927c0,1.953,0.941,2.928,2.827,2.928
	C246.669,89.988,247.612,89.013,247.612,87.06z M253.77,38.909c0-2.019-0.976-3.029-2.927-3.029c-1.952,0-2.927,1.01-2.927,3.029
	c0,1.952,0.975,2.927,2.927,2.927C252.794,41.837,253.77,40.862,253.77,38.909z"/>
<linearGradient id="SVGID_9_" gradientUnits="userSpaceOnUse" x1="44.2617" y1="261.2745" x2="44.2617" y2="187.8873">
	<stop  offset="0" style="stop-color:#FF7F9B"/>
	<stop  offset="0.5007" style="stop-color:#D37FFF"/>
	<stop  offset="1" style="stop-color:#55BAFF"/>
</linearGradient>
<path style="fill:url(#SVGID_9_);" d="M77.22,236.778c0,6.723-2.407,12.486-7.217,17.29c-4.813,4.804-10.584,7.207-17.312,7.207
	H23.719c-3.366,0-6.276-1.21-8.732-3.63c-2.457-2.419-3.684-5.309-3.684-8.669v-48.69c0-3.426,1.227-6.35,3.684-8.769
	c2.456-2.42,5.366-3.63,8.732-3.63l10.397,0.101c6.729,0.068,12.416,2.487,17.06,7.259c4.643,4.771,6.966,10.583,6.966,17.438
	c5.585,1.075,10.16,3.882,13.728,8.418C75.436,225.639,77.22,230.865,77.22,236.778z M21.398,197.578
	c0-1.883-0.959-2.827-2.877-2.827s-2.877,0.943-2.877,2.827c0,2.019,0.958,3.029,2.877,3.029S21.398,199.597,21.398,197.578z
	 M21.499,248.151v-43.305c0-1.951-0.943-2.927-2.827-2.927c-2.019,0-3.028,0.976-3.028,2.927v43.305c0,0.808,0.303,1.514,0.908,2.12
	c0.605,0.606,1.312,0.908,2.119,0.908C20.555,251.18,21.499,250.17,21.499,248.151z"/>
<linearGradient id="SVGID_10_" gradientUnits="userSpaceOnUse" x1="84.791" y1="224.6819" x2="158.4809" y2="224.6819">
	<stop  offset="0" style="stop-color:#FFFDAA"/>
	<stop  offset="0.5676" style="stop-color:#7FFFDD"/>
	<stop  offset="1" style="stop-color:#55BAFF"/>
</linearGradient>
<path style="fill:url(#SVGID_10_);" d="M158.481,224.682c0,10.148-3.584,18.818-10.751,26.009
	c-7.168,7.191-15.866,10.786-26.095,10.786c-10.162,0-18.844-3.595-26.043-10.786c-7.202-7.191-10.801-15.861-10.801-26.009
	s3.6-18.817,10.801-26.008c7.2-7.191,15.881-10.787,26.043-10.787c10.161,0,18.842,3.596,26.044,10.787
	C154.88,205.865,158.481,214.534,158.481,224.682z M107.503,247.142c-3.769-2.423-6.78-5.618-9.034-9.59
	c-2.256-3.97-3.382-8.277-3.382-12.921c0-6.662,2.287-12.517,6.864-17.564c0.538-0.606,0.808-1.245,0.808-1.918
	c0-0.808-0.32-1.514-0.959-2.119c-0.64-0.606-1.362-0.909-2.17-0.909s-1.481,0.303-2.019,0.909
	c-5.519,6.124-8.278,13.325-8.278,21.602c0,5.653,1.363,10.902,4.088,15.747c2.726,4.845,6.375,8.716,10.953,11.609
	c0.538,0.337,1.076,0.505,1.616,0.505c0.807,0,1.479-0.303,2.019-0.908c0.537-0.606,0.807-1.312,0.807-2.12
	C108.816,248.454,108.377,247.682,107.503,247.142z M109.219,199.446c0-1.918-0.976-2.877-2.927-2.877
	c-1.952,0-2.927,0.959-2.927,2.877s0.975,2.877,2.927,2.877C108.243,202.322,109.219,201.364,109.219,199.446z"/>
<linearGradient id="SVGID_11_" gradientUnits="userSpaceOnUse" x1="166.9587" y1="224.5809" x2="230.1498" y2="224.5809">
	<stop  offset="0" style="stop-color:#FF7F9B"/>
	<stop  offset="0.5303" style="stop-color:#FFB47F"/>
	<stop  offset="1" style="stop-color:#FFFDAA"/>
</linearGradient>
<path style="fill:url(#SVGID_11_);" d="M230.15,200.286c0,3.629-6.394,15.053-19.18,34.274v14.416c0,3.36-1.228,6.249-3.684,8.669
	c-2.457,2.419-5.367,3.63-8.732,3.63c-3.365,0-6.258-1.21-8.681-3.63c-2.423-2.419-3.634-5.309-3.634-8.669v-13.609
	c-12.855-19.556-19.28-31.25-19.28-35.081c0-3.426,1.211-6.35,3.634-8.769c2.423-2.42,5.315-3.63,8.681-3.63h38.561
	c3.432,0,6.343,1.21,8.732,3.63C228.955,193.936,230.15,196.861,230.15,200.286z M178.668,197.578c0-1.883-0.976-2.827-2.927-2.827
	c-1.952,0-2.927,0.943-2.927,2.827c0,2.019,0.975,3.029,2.927,3.029C177.691,200.607,178.668,199.597,178.668,197.578z
	 M196.434,249.464v-15.243c0-0.47-0.136-0.941-0.405-1.413l-17.136-29.173c-0.541-0.941-1.352-1.413-2.434-1.413
	c-0.745,0-1.437,0.27-2.079,0.808c-0.642,0.539-0.962,1.211-0.962,2.019c0,0.539,0.167,1.077,0.505,1.615l16.656,28.365v14.435
	c0,1.953,0.993,2.928,2.98,2.928C195.475,252.391,196.434,251.417,196.434,249.464z"/>
<linearGradient id="SVGID_12_" gradientUnits="userSpaceOnUse" x1="237.8205" y1="224.5809" x2="288.6969" y2="224.5809">
	<stop  offset="0" style="stop-color:#D37FFF"/>
	<stop  offset="0.0832" style="stop-color:#CC82FF"/>
	<stop  offset="0.2075" style="stop-color:#B78CFF"/>
	<stop  offset="0.3576" style="stop-color:#969CFF"/>
	<stop  offset="0.5265" style="stop-color:#68B1FF"/>
	<stop  offset="0.589" style="stop-color:#55BAFF"/>
	<stop  offset="1" style="stop-color:#7FFFDD"/>
</linearGradient>
<path style="fill:url(#SVGID_12_);" d="M288.697,235.789c0,7.052-2.481,13.062-7.441,18.031c-4.96,4.97-10.926,7.454-17.896,7.454
	h-13.273c-3.419,0-6.318-1.212-8.697-3.634c-2.38-2.423-3.569-5.315-3.569-8.681c0-3.432,1.164-6.342,3.495-8.732
	c2.33-2.388,5.169-3.584,8.515-3.584h3.938c-4.719-1.678-8.557-4.65-11.514-8.915s-4.435-9.084-4.435-14.456
	c0-6.984,2.489-12.962,7.47-17.932c4.98-4.969,10.968-7.454,17.968-7.454h10.095c3.432,0,6.359,1.212,8.782,3.634
	c2.423,2.422,3.634,5.35,3.634,8.782c0,3.366-1.212,6.258-3.634,8.681c-2.423,2.423-5.35,3.634-8.782,3.634h-3.432
	c5.451,1.546,9.893,4.333,13.325,8.361C286.88,225.212,288.697,230.149,288.697,235.789z M258.615,226.852
	c-3.164-0.404-5.789-1.782-7.873-4.139c-2.087-2.354-3.13-5.181-3.13-8.479c0-2.355,0.606-4.508,1.818-6.46
	c0.335-0.538,0.505-1.043,0.505-1.514c0-0.808-0.317-1.479-0.948-2.019c-0.63-0.538-1.312-0.808-2.042-0.808
	c-1.063,0-1.895,0.505-2.493,1.514c-1.662,2.962-2.492,6.057-2.492,9.287c0,4.643,1.54,8.716,4.618,12.214
	c3.079,3.5,6.863,5.587,11.348,6.259c2.142,0.337,3.213-0.639,3.213-2.928C261.139,228.03,260.297,227.054,258.615,226.852z
	 M247.612,249.06c0-1.951-0.943-2.927-2.826-2.927c-1.885,0-2.827,0.976-2.827,2.927c0,1.953,0.941,2.928,2.827,2.928
	C246.669,251.988,247.612,251.013,247.612,249.06z M253.77,200.909c0-2.019-0.976-3.029-2.927-3.029
	c-1.952,0-2.927,1.01-2.927,3.029c0,1.952,0.975,2.927,2.927,2.927C252.794,203.837,253.77,202.862,253.77,200.909z"/>
</svg>
