<?xml version="1.0" encoding="iso-8859-1"?>
<!-- Generator: Adobe Illustrator 21.1.0, SVG Export Plug-In . SVG Version: 6.00 Build 0)  -->
<svg version="1.1" id="Layer_3" xmlns="http://www.w3.org/2000/svg" xmlns:xlink="http://www.w3.org/1999/xlink" x="0px" y="0px"
	 viewBox="0 0 300 300" style="enable-background:new 0 0 300 300;" xml:space="preserve">
<linearGradient id="SVGID_1_" gradientUnits="userSpaceOnUse" x1="97.1289" y1="64.3129" x2="205.4312" y2="64.3129">
	<stop  offset="0" style="stop-color:#55BAFF"/>
	<stop  offset="0.1063" style="stop-color:#68B1FF"/>
	<stop  offset="0.3929" style="stop-color:#969CFF"/>
	<stop  offset="0.6477" style="stop-color:#B78CFF"/>
	<stop  offset="0.8588" style="stop-color:#CC82FF"/>
	<stop  offset="1" style="stop-color:#D37FFF"/>
</linearGradient>
<path style="fill:url(#SVGID_1_);" d="M205.431,68.297c0,0-32.586-50.282-80.768-24.653S104.16,90.8,113.899,86.7
	c0,0-11.789-12.814,4.613-18.965s13.972,17.207,13.972,17.207s62.799,14.839,65.477,2.262S205.431,68.297,205.431,68.297z"/>
<linearGradient id="SVGID_2_" gradientUnits="userSpaceOnUse" x1="146.1626" y1="282.4486" x2="146.1626" y2="1.6667">
	<stop  offset="0" style="stop-color:#D37FFF"/>
	<stop  offset="0.0832" style="stop-color:#CC82FF"/>
	<stop  offset="0.2075" style="stop-color:#B78CFF"/>
	<stop  offset="0.3576" style="stop-color:#969CFF"/>
	<stop  offset="0.5265" style="stop-color:#68B1FF"/>
	<stop  offset="0.589" style="stop-color:#55BAFF"/>
	<stop  offset="1" style="stop-color:#7FFFDD"/>
</linearGradient>
<path style="fill:url(#SVGID_2_);" d="M132.485,84.941l-96.449,24.417c-1.158,0.293-1.933,1.383-1.829,2.573l4.096,47.104
	c0.101,1.156,1.003,2.081,2.156,2.21l39.554,4.428c0.664,0.074,1.329-0.127,1.84-0.558l10.533-8.87
	c0.476-0.401,1.087-0.604,1.707-0.569L135.044,158c1.507,0.086,2.575,1.507,2.236,2.979l-22.619,98.316
	c-0.309,1.341,0.554,2.672,1.905,2.937l102.684,20.17c0.972,0.191,1.963-0.226,2.507-1.054l35.971-54.816
	c0.423-0.645,0.516-1.452,0.25-2.176l-47.898-130.48c-0.388-1.057-0.001-2.242,0.936-2.867l18.289-12.192
	c0.678-0.452,1.085-1.213,1.085-2.027V58.156c0-1.874-2.027-3.046-3.651-2.112l-21.308,12.252c-0.303,0.174-0.565,0.412-0.768,0.696
	l-8.39,11.745c-0.515,0.721-1.38,1.105-2.26,1.004l-35.739-4.101c-0.97-0.111-1.78-0.791-2.058-1.726L134.661,3.412
	c-0.824-2.772-4.932-2.055-4.768,0.832l4.426,78.198C134.385,83.607,133.616,84.655,132.485,84.941z"/>
<linearGradient id="SVGID_3_" gradientUnits="userSpaceOnUse" x1="186.6709" y1="129.9149" x2="250.2909" y2="129.9149">
	<stop  offset="0" style="stop-color:#FF7F9B"/>
	<stop  offset="1" style="stop-color:#D37FFF"/>
</linearGradient>
<path style="fill:url(#SVGID_3_);" d="M211.017,91.009l18.289-12.192c0,0,26.577,6.858,19.913,24.798s-55.871,41.519-54.333,77.399
	C194.886,181.013,168.202,126.073,211.017,91.009z"/>
<linearGradient id="SVGID_4_" gradientUnits="userSpaceOnUse" x1="192.8396" y1="166.9263" x2="253.2115" y2="166.9263">
	<stop  offset="0" style="stop-color:#FF7F9B"/>
	<stop  offset="1" style="stop-color:#FFB47F"/>
</linearGradient>
<path style="fill:url(#SVGID_4_);" d="M241.548,114.396c0,0,20.997,12.284,6.645,42.526c0,0-44.006,18.965-42.762,62.534
	C205.431,219.456,160.067,170.285,241.548,114.396z"/>
<linearGradient id="SVGID_5_" gradientUnits="userSpaceOnUse" x1="200.5283" y1="204.3443" x2="260.9001" y2="204.3443">
	<stop  offset="0" style="stop-color:#FFB47F"/>
	<stop  offset="1" style="stop-color:#FFFDAA"/>
</linearGradient>
<path style="fill:url(#SVGID_5_);" d="M249.237,151.814c0,0,20.997,12.284,6.645,42.526c0,0-44.006,18.965-42.762,62.534
	C213.12,256.874,167.756,207.702,249.237,151.814z"/>
<linearGradient id="SVGID_6_" gradientUnits="userSpaceOnUse" x1="205.4312" y1="244.8377" x2="265.8031" y2="244.8377">
	<stop  offset="0" style="stop-color:#FFFDAA"/>
	<stop  offset="1" style="stop-color:#7FFFDD"/>
</linearGradient>
<path style="fill:url(#SVGID_6_);" d="M254.14,192.308c0,0,20.997,12.284,6.645,42.526c0,0-25.168,25.394-42.762,62.534
	C218.023,297.368,172.659,248.196,254.14,192.308z"/>
<polygon style="fill:#FFFFFF;" points="146.163,87.921 150.952,102.661 166.45,102.661 153.912,111.771 158.701,126.511 
	146.163,117.401 133.624,126.511 138.413,111.771 125.875,102.661 141.373,102.661 "/>
</svg>
