<?xml version="1.0" encoding="iso-8859-1"?>
<!-- Generator: Adobe Illustrator 21.1.0, SVG Export Plug-In . SVG Version: 6.00 Build 0)  -->
<svg version="1.1" id="Layer_2" xmlns="http://www.w3.org/2000/svg" xmlns:xlink="http://www.w3.org/1999/xlink" x="0px" y="0px"
	 viewBox="0 0 300 300" style="enable-background:new 0 0 300 300;" xml:space="preserve">
<path style="fill:#E599F2;" d="M212,50H95.84c-13.75,0-25-11.25-25-25v0c0-13.75,11.25-25,25-25L212,0c13.75,0,25,11.25,25,25v0
	C237,38.75,225.75,50,212,50z"/>
<path style="fill:#99D6FF;" d="M212,100H95.84c-13.75,0-25-11.25-25-25v0c0-13.75,11.25-25,25-25H212c13.75,0,25,11.25,25,25v0
	C237,88.75,225.75,100,212,100z"/>
<path style="fill:#9DF9D8;" d="M212,150H95.84c-13.75,0-25-11.25-25-25v0c0-13.75,11.25-25,25-25H212c13.75,0,25,11.25,25,25v0
	C237,138.75,225.75,150,212,150z"/>
<path style="fill:#FFF599;" d="M207.16,200H91c-13.75,0-25-11.25-25-25v0c0-13.75,11.25-25,25-25h116.16c13.75,0,25,11.25,25,25v0
	C232.16,188.75,220.91,200,207.16,200z"/>
<path style="fill:#FFCD92;" d="M207.16,250H91c-13.75,0-25-11.25-25-25v0c0-13.75,11.25-25,25-25h116.16c13.75,0,25,11.25,25,25v0
	C232.16,238.75,220.91,250,207.16,250z"/>
<path style="fill:#FFA9CC;" d="M207.16,300H91c-13.75,0-25-11.25-25-25v0c0-13.75,11.25-25,25-25h116.16c13.75,0,25,11.25,25,25v0
	C232.16,288.75,220.91,300,207.16,300z"/>
</svg>
