<?xml version="1.0" encoding="iso-8859-1"?>
<!-- Generator: Adobe Illustrator 21.1.0, SVG Export Plug-In . SVG Version: 6.00 Build 0)  -->
<svg version="1.1" id="Layer_2" xmlns="http://www.w3.org/2000/svg" xmlns:xlink="http://www.w3.org/1999/xlink" x="0px" y="0px"
	 viewBox="0 0 300 84" style="enable-background:new 0 0 300 84;" xml:space="preserve">
<g>
	<g>
		<g>
			<path style="fill:#FF4591;" d="M94.153,33.837c-3.893-0.442-7.499,1.013-10.164,3.649c0.061-2.43-1.585-4.983-5.194-5.393
				l-2.69-0.305c-3.68-0.418-6.855,1.659-7.409,6.543l-1.152,10.145l-4.643-24.031c-0.522-2.7-1.138-5.062-2.314-6.594
				c-1.604-2.091-4.157-2.878-6.625-2.401l-1.234,0.238c-2.468,0.477-4.544,2.158-5.254,4.696c-0.52,1.861-0.213,4.282,0.309,6.982
				l3.979,20.595c0.522,2.7,0.829,5.121,0.309,6.982c-0.71,2.538-2.786,4.219-5.254,4.696l-1.234,0.238
				c-2.468,0.477-5.021-0.31-6.625-2.401c-1.176-1.533-1.792-3.894-2.314-6.594l-3.979-20.595c-1.461-7.56-4.619-9.83-10.868-8.623
				l-1.62,0.313c-6.248,1.207-8.334,4.491-6.874,12.051l4.918,25.455c2.444,12.65,12.223,18.123,24.719,15.708l9.874-1.908
				c6.35-1.227,11.222-4.277,13.728-9.21c0.829,2.465,2.874,3.873,5.427,4.163l1.84,0.209c3.68,0.418,6.855-1.659,7.409-6.543
				l1.189-10.475c0.466-4.105,2.578-5.657,4.418-5.449c1.769,0.201,2.442,1.855,2.193,4.049l-1.43,12.598
				c-0.554,4.884,2.074,7.619,5.754,8.037l1.84,0.209c3.681,0.418,6.855-1.659,7.41-6.543l1.816-15.995
				C105.484,38.851,99.603,34.456,94.153,33.837z"/>
		</g>
		<g>
			<path style="fill:#FF4591;" d="M114.944,32.989h-1.852c-3.703,0-6.624,2.422-6.624,7.337v22.01c0,4.915,2.921,7.337,6.624,7.337
				h1.852c3.704,0,6.624-2.422,6.624-7.337v-22.01C121.568,35.411,118.647,32.989,114.944,32.989z"/>
		</g>
		<g>
			<path style="fill:#FF4591;" d="M126.393,18.162c0-6.463-5.637-11.826-12.375-11.826c-6.876,0-12.376,5.363-12.376,11.826
				c0,6.737,5.5,12.1,12.376,12.1C120.755,30.262,126.393,24.899,126.393,18.162z"/>
		</g>
		<g>
			<path style="fill:#FF4591;" d="M247.808,44.011c-1.182-9.472-7.931-12.362-13.374-11.683c-3.887,0.485-7.05,2.746-9.022,5.935
				c-0.512-2.376-2.712-4.471-6.315-4.022l-2.686,0.335c-2.845,0.355-5.037,2.098-5.603,5.126
				c-3.961-7.021-11.48-11.367-20.069-11.367c-12.046,0-21.991,8.545-22.957,21.036c-0.724-0.208-1.513-0.317-2.361-0.317
				c-4.547,0-6.301,1.914-7.737,4.705c-1.675,3.271-3.988,4.228-7.418,4.228c-2.712,0-5.024-0.638-6.699-3.031
				c-1.436-2.073-2.074-5.503-2.074-9.411v-3.031c0-3.748,0.478-7.258,2.074-9.411c1.595-2.154,4.067-3.031,6.779-3.031
				c3.35,0,5.663,1.117,7.418,4.228c1.596,2.871,3.11,4.705,7.737,4.705c4.467,0,7.418-2.951,7.418-8.056
				c0-6.859-6.381-15.633-21.057-15.633h-1.675c-7.737,0-14.995,2.473-20.498,8.295c-5.184,5.503-7.258,12.363-7.258,20.1v0.638
				c0,7.896,2.154,14.676,7.258,20.1c5.584,5.902,12.762,8.295,20.498,8.295h1.675c10.238,0,16.389-4.194,19.179-9.112
				c4.05,6.616,11.374,10.694,19.697,10.694c10.288,0,19.047-6.232,21.987-15.785l0.746,5.976c0.609,4.877,3.806,6.919,7.482,6.46
				l1.837-0.229c3.675-0.458,6.273-3.223,5.665-8.1l-1.305-10.461c-0.511-4.099,1.177-6.105,3.014-6.334
				c1.767-0.221,2.809,1.229,3.083,3.42l1.57,12.581c0.609,4.877,3.807,6.919,7.482,6.46l1.838-0.229
				c3.675-0.459,6.273-3.223,5.665-8.1L247.808,44.011z M190.739,58.787c-2.769,0-4.376-2.768-4.376-7.412
				c0-4.555,1.607-7.323,4.376-7.323c2.768,0,4.375,2.769,4.375,7.323C195.114,56.019,193.507,58.787,190.739,58.787z"/>
		</g>
		<g>
			<path style="fill:#FF4591;" d="M279.49,34.105c-3.877-0.561-7.526,0.783-10.27,3.337c0.135-2.427-1.432-5.029-5.027-5.549
				l-2.679-0.387c-3.666-0.53-6.903,1.449-7.606,6.313l-3.15,21.783c-0.703,4.865,1.84,7.679,5.506,8.209l1.833,0.265
				c3.665,0.53,6.903-1.449,7.606-6.313l1.509-10.433c0.591-4.088,2.75-5.576,4.582-5.311c1.763,0.255,2.384,1.928,2.068,4.114
				l-1.814,12.548c-0.703,4.865,1.841,7.679,5.506,8.209l1.834,0.265c3.665,0.53,6.902-1.449,7.606-6.313l2.304-15.932
				C290.662,39.463,284.918,34.89,279.49,34.105z"/>
		</g>
	</g>
	<g>
		<g>
			<path style="fill:none;stroke:#B74FC6;stroke-width:6;" d="M94.153,33.837c-3.893-0.442-7.499,1.013-10.164,3.649
				c0.061-2.43-1.585-4.983-5.194-5.393l-2.69-0.305c-3.68-0.418-6.855,1.659-7.409,6.543l-1.152,10.145l-4.643-24.031
				c-0.522-2.7-1.138-5.062-2.314-6.594c-1.604-2.091-4.157-2.878-6.625-2.401l-1.234,0.238c-2.468,0.477-4.544,2.158-5.254,4.696
				c-0.52,1.861-0.213,4.282,0.309,6.982l3.979,20.595c0.522,2.7,0.829,5.121,0.309,6.982c-0.71,2.538-2.786,4.219-5.254,4.696
				l-1.234,0.238c-2.468,0.477-5.021-0.31-6.625-2.401c-1.176-1.533-1.792-3.894-2.314-6.594l-3.979-20.595
				c-1.461-7.56-4.619-9.83-10.868-8.623l-1.62,0.313c-6.248,1.207-8.334,4.491-6.874,12.051l4.918,25.455
				c2.444,12.65,12.223,18.123,24.719,15.708l9.874-1.908c6.35-1.227,11.222-4.277,13.728-9.21c0.829,2.465,2.874,3.873,5.427,4.163
				l1.84,0.209c3.68,0.418,6.855-1.659,7.409-6.543l1.189-10.475c0.466-4.105,2.578-5.657,4.418-5.449
				c1.769,0.201,2.442,1.855,2.193,4.049l-1.43,12.598c-0.554,4.884,2.074,7.619,5.754,8.037l1.84,0.209
				c3.681,0.418,6.855-1.659,7.41-6.543l1.816-15.995C105.484,38.851,99.603,34.456,94.153,33.837z"/>
			<path style="fill:none;stroke:#B74FC6;stroke-width:6;" d="M55.357,15.316c2,0,3.928,0.838,5.23,2.536
				c1.177,1.533,1.792,3.894,2.314,6.594l4.643,24.031l1.152-10.145c0.508-4.477,3.219-6.595,6.502-6.595
				c0.298,0,0.601,0.018,0.908,0.052l2.69,0.305c3.61,0.41,5.256,2.963,5.194,5.393c2.347-2.322,5.425-3.728,8.785-3.728
				c0.455,0,0.914,0.026,1.378,0.078c5.45,0.619,11.331,5.014,10.254,14.498l-1.816,15.995c-0.508,4.477-3.218,6.595-6.502,6.595
				c-0.298,0-0.602-0.018-0.908-0.052l-1.84-0.209c-3.68-0.418-6.309-3.153-5.754-8.037l1.43-12.598
				c0.249-2.194-0.423-3.848-2.193-4.049c-0.108-0.012-0.216-0.018-0.326-0.018c-1.756,0-3.654,1.603-4.093,5.467l-1.189,10.475
				c-0.508,4.477-3.218,6.595-6.501,6.595c-0.298,0-0.602-0.018-0.908-0.052l-1.84-0.209c-2.553-0.29-4.598-1.698-5.427-4.163
				c-2.506,4.933-7.378,7.983-13.728,9.21l-9.874,1.908c-1.927,0.372-3.787,0.557-5.568,0.557c-9.768,0-17.084-5.565-19.152-16.265
				l-4.918-25.455c-1.461-7.56,0.626-10.843,6.874-12.051l1.62-0.313c1.04-0.201,1.994-0.305,2.869-0.305
				c4.384,0,6.782,2.626,7.999,8.928l3.979,20.595c0.522,2.7,1.138,5.062,2.314,6.594c1.303,1.698,3.23,2.536,5.23,2.536
				c0.463,0,0.931-0.045,1.395-0.135l1.234-0.239c2.468-0.477,4.544-2.158,5.254-4.696c0.52-1.861,0.213-4.282-0.309-6.982
				l-3.979-20.595c-0.522-2.7-0.829-5.121-0.309-6.982c0.71-2.538,2.786-4.219,5.254-4.696l1.234-0.238
				C54.427,15.361,54.894,15.316,55.357,15.316 M55.357,14.316c-0.526,0-1.059,0.051-1.584,0.153l-1.234,0.238
				c-2.988,0.577-5.242,2.599-6.028,5.409c-0.596,2.133-0.213,4.837,0.29,7.441l3.979,20.595c0.457,2.363,0.812,4.789,0.328,6.523
				c-0.577,2.064-2.252,3.553-4.481,3.984l-1.234,0.239c-0.4,0.077-0.806,0.116-1.205,0.116c-1.8,0-3.376-0.762-4.437-2.145
				c-1.095-1.427-1.669-3.811-2.126-6.175l-3.979-20.595c-1.301-6.735-4.071-9.738-8.981-9.738c-0.931,0-1.931,0.106-3.058,0.324
				l-1.62,0.313c-6.906,1.334-9.199,5.289-7.666,13.222l4.918,25.455c2.097,10.852,9.435,17.075,20.133,17.075
				c1.845,0,3.782-0.193,5.758-0.575l9.874-1.908c6.102-1.179,10.717-3.962,13.47-8.095c1.169,1.709,3.049,2.795,5.383,3.06
				l1.84,0.209c0.343,0.039,0.686,0.059,1.021,0.059c4.099,0,6.971-2.867,7.495-7.482l1.189-10.475
				c0.384-3.38,1.909-4.58,3.099-4.58c0.071,0,0.142,0.004,0.213,0.012c0.51,0.058,0.851,0.291,1.072,0.732
				c0.262,0.521,0.344,1.285,0.239,2.21l-1.43,12.598c-0.292,2.57,0.225,4.79,1.494,6.42c1.195,1.535,2.973,2.477,5.142,2.723
				l1.84,0.209c0.343,0.039,0.687,0.059,1.021,0.059c4.099,0,6.971-2.867,7.495-7.482l1.816-15.995
				c1.11-9.78-4.793-14.884-11.135-15.604c-0.495-0.056-0.997-0.085-1.491-0.085c-2.895,0-5.702,0.976-8.067,2.779
				c-0.667-2.123-2.532-4.067-5.8-4.438l-2.69-0.305c-0.343-0.039-0.686-0.059-1.02-0.059c-4.099,0-6.971,2.867-7.495,7.482
				l-0.415,3.656l-3.404-17.618c-0.503-2.605-1.155-5.258-2.503-7.014C59.954,15.383,57.758,14.316,55.357,14.316L55.357,14.316z"/>
		</g>
		<g>
			<path style="fill:none;stroke:#B74FC6;stroke-width:6;" d="M114.944,32.989h-1.852c-3.703,0-6.624,2.422-6.624,7.337v22.01
				c0,4.915,2.921,7.337,6.624,7.337h1.852c3.704,0,6.624-2.422,6.624-7.337v-22.01C121.568,35.411,118.647,32.989,114.944,32.989z"
				/>
			<path style="fill:none;stroke:#B74FC6;stroke-width:6;" d="M114.944,32.989c3.704,0,6.624,2.422,6.624,7.337v22.01
				c0,4.915-2.92,7.337-6.624,7.337h-1.852c-3.703,0-6.624-2.422-6.624-7.337v-22.01c0-4.915,2.921-7.337,6.624-7.337H114.944
				 M114.944,31.989h-1.852c-4.631,0-7.624,3.272-7.624,8.337v22.01c0,5.064,2.993,8.337,7.624,8.337h1.852
				c4.631,0,7.624-3.272,7.624-8.337v-22.01C122.568,35.262,119.575,31.989,114.944,31.989L114.944,31.989z"/>
		</g>
		<g>
			<path style="fill:none;stroke:#B74FC6;stroke-width:6;" d="M126.393,18.162c0-6.463-5.637-11.826-12.375-11.826
				c-6.876,0-12.376,5.363-12.376,11.826c0,6.737,5.5,12.1,12.376,12.1C120.755,30.262,126.393,24.899,126.393,18.162z"/>
			<path style="fill:none;stroke:#B74FC6;stroke-width:6;" d="M114.018,6.336c6.737,0,12.375,5.363,12.375,11.826
				c0,6.737-5.637,12.1-12.375,12.1c-6.876,0-12.376-5.363-12.376-12.1C101.642,11.699,107.142,6.336,114.018,6.336 M114.018,5.336
				c-7.375,0-13.376,5.754-13.376,12.826c0,7.223,6,13.1,13.376,13.1c7.375,0,13.375-5.877,13.375-13.1
				C127.393,11.21,121.268,5.336,114.018,5.336L114.018,5.336z"/>
		</g>
		<g>
			<path style="fill:none;stroke:#B74FC6;stroke-width:6;" d="M247.808,44.011c-1.182-9.472-7.931-12.362-13.374-11.683
				c-3.887,0.485-7.05,2.746-9.022,5.935c-0.512-2.376-2.712-4.471-6.315-4.022l-2.686,0.335c-2.845,0.355-5.037,2.098-5.603,5.126
				c-3.961-7.021-11.48-11.367-20.069-11.367c-12.046,0-21.991,8.545-22.957,21.036c-0.724-0.208-1.513-0.317-2.361-0.317
				c-4.547,0-6.301,1.914-7.737,4.705c-1.675,3.271-3.988,4.228-7.418,4.228c-2.712,0-5.024-0.638-6.699-3.031
				c-1.436-2.073-2.074-5.503-2.074-9.411v-3.031c0-3.748,0.478-7.258,2.074-9.411c1.595-2.154,4.067-3.031,6.779-3.031
				c3.35,0,5.663,1.117,7.418,4.228c1.596,2.871,3.11,4.705,7.737,4.705c4.467,0,7.418-2.951,7.418-8.056
				c0-6.859-6.381-15.633-21.057-15.633h-1.675c-7.737,0-14.995,2.473-20.498,8.295c-5.184,5.503-7.258,12.363-7.258,20.1v0.638
				c0,7.896,2.154,14.676,7.258,20.1c5.584,5.902,12.762,8.295,20.498,8.295h1.675c10.238,0,16.389-4.194,19.179-9.112
				c4.05,6.616,11.374,10.694,19.697,10.694c10.288,0,19.047-6.232,21.987-15.785l0.746,5.976c0.609,4.877,3.806,6.919,7.482,6.46
				l1.837-0.229c3.675-0.458,6.273-3.223,5.665-8.1l-1.305-10.461c-0.511-4.099,1.177-6.105,3.014-6.334
				c1.767-0.221,2.809,1.229,3.083,3.42l1.57,12.581c0.609,4.877,3.807,6.919,7.482,6.46l1.838-0.229
				c3.675-0.459,6.273-3.223,5.665-8.1L247.808,44.011z M190.739,58.787c-2.769,0-4.376-2.768-4.376-7.412
				c0-4.555,1.607-7.323,4.376-7.323c2.768,0,4.375,2.769,4.375,7.323C195.114,56.019,193.507,58.787,190.739,58.787z"/>
			<path style="fill:none;stroke:#B74FC6;stroke-width:6;" d="M151.862,15.316c14.676,0,21.057,8.774,21.057,15.633
				c0,5.105-2.951,8.056-7.418,8.056c-4.627,0-6.141-1.835-7.737-4.705c-1.755-3.111-4.068-4.228-7.418-4.228
				c-2.712,0-5.185,0.878-6.779,3.031c-1.596,2.153-2.074,5.663-2.074,9.411v3.031c0,3.908,0.638,7.338,2.074,9.411
				c1.675,2.393,3.988,3.031,6.699,3.031c3.43,0,5.743-0.957,7.418-4.228c1.436-2.791,3.19-4.705,7.737-4.705
				c0.848,0,1.637,0.109,2.361,0.317c0.966-12.491,10.911-21.036,22.957-21.036c8.589,0,16.108,4.347,20.069,11.367
				c0.566-3.028,2.758-4.771,5.603-5.126l2.686-0.335c0.332-0.041,0.652-0.061,0.96-0.061c3.035,0,4.89,1.925,5.355,4.083
				c1.971-3.189,5.135-5.45,9.022-5.935c0.499-0.062,1.008-0.094,1.523-0.094c5.109,0,10.777,3.174,11.851,11.777l1.993,15.974
				c0.609,4.877-1.99,7.642-5.665,8.1l-1.838,0.229c-0.335,0.042-0.666,0.063-0.991,0.063c-3.245,0-5.937-2.09-6.49-6.523
				l-1.57-12.581c-0.255-2.044-1.178-3.442-2.736-3.442c-0.112,0-0.228,0.007-0.347,0.022c-1.837,0.229-3.525,2.235-3.014,6.334
				l1.305,10.461c0.609,4.877-1.99,7.642-5.665,8.1l-1.837,0.229c-0.335,0.042-0.666,0.063-0.992,0.063
				c-3.245,0-5.937-2.09-6.49-6.523l-0.746-5.976c-2.939,9.553-11.699,15.785-21.987,15.785c-8.324,0-15.647-4.078-19.697-10.694
				c-2.791,4.918-8.942,9.112-19.179,9.112h-1.675c-7.737,0-14.915-2.393-20.498-8.295c-5.105-5.424-7.258-12.203-7.258-20.1v-0.638
				c0-7.737,2.074-14.596,7.258-20.1c5.503-5.822,12.762-8.295,20.498-8.295H151.862 M190.739,58.787
				c2.768,0,4.375-2.768,4.375-7.412c0-4.555-1.607-7.323-4.375-7.323c-2.769,0-4.376,2.769-4.376,7.323
				C186.363,56.019,187.97,58.787,190.739,58.787 M151.862,14.316h-1.675c-8.563,0-15.902,2.977-21.225,8.608
				c-5.068,5.38-7.532,12.179-7.532,20.786v0.638c0,8.602,2.463,15.401,7.53,20.785c5.405,5.714,12.546,8.61,21.226,8.61h1.675
				c8.57,0,15.462-2.995,19.195-8.274c4.407,6.2,11.649,9.856,19.681,9.856c9.31,0,17.506-5.028,21.47-12.845l0.269,2.16
				c0.569,4.564,3.436,7.399,7.482,7.399c0.365,0,0.74-0.024,1.116-0.071l1.837-0.229c2.166-0.27,3.933-1.232,5.111-2.78
				c1.251-1.645,1.743-3.87,1.423-6.436l-1.305-10.461c-0.42-3.367,0.775-5.047,2.146-5.218c0.076-0.01,0.151-0.014,0.223-0.014
				c1.284,0,1.647,1.795,1.743,2.566l1.57,12.581c0.569,4.564,3.437,7.399,7.482,7.399c0.365,0,0.74-0.024,1.115-0.07l1.838-0.229
				c2.166-0.27,3.933-1.232,5.111-2.78c1.251-1.645,1.743-3.87,1.422-6.436L248.8,43.887c-1.164-9.329-7.398-12.654-12.843-12.654
				c-0.55,0-1.104,0.034-1.647,0.102c-3.439,0.429-6.456,2.136-8.659,4.862c-1.01-1.678-2.895-3.017-5.594-3.017
				c-0.352,0-0.717,0.023-1.084,0.069l-2.686,0.335c-2.629,0.328-4.661,1.707-5.745,3.812c-4.386-6.338-11.639-10.061-19.803-10.061
				c-6.9,0-12.993,2.644-17.317,7.052c0.326-1.032,0.497-2.185,0.497-3.439c0-4.047-1.954-8.106-5.36-11.136
				C165.739,17.306,160.554,14.316,151.862,14.316L151.862,14.316z M150.266,56.988c-2.844,0-4.602-0.779-5.88-2.605
				c-1.22-1.762-1.893-4.902-1.893-8.838v-3.031c0-4.169,0.632-7.135,1.877-8.816c1.607-2.171,4.137-2.627,5.976-2.627
				c3.16,0,5.056,1.077,6.547,3.719c1.584,2.85,3.328,5.214,8.608,5.214c1.729,0,3.251-0.406,4.508-1.157
				c-1.616,2.753-2.696,5.897-3.112,9.313c-0.477-0.07-0.971-0.106-1.477-0.106c-4.918,0-7.005,2.098-8.626,5.248
				C155.419,55.99,153.65,56.988,150.266,56.988L150.266,56.988z M190.739,57.787c-3.133,0-3.376-4.907-3.376-6.412
				c0-1.483,0.243-6.323,3.376-6.323c3.132,0,3.375,4.84,3.375,6.323C194.114,52.88,193.87,57.787,190.739,57.787L190.739,57.787z"
				/>
		</g>
		<g>
			<path style="fill:none;stroke:#B74FC6;stroke-width:6;" d="M279.49,34.105c-3.877-0.561-7.526,0.783-10.27,3.337
				c0.135-2.427-1.432-5.029-5.027-5.549l-2.679-0.387c-3.666-0.53-6.903,1.449-7.606,6.313l-3.15,21.783
				c-0.703,4.865,1.84,7.679,5.506,8.209l1.833,0.265c3.665,0.53,6.903-1.449,7.606-6.313l1.509-10.433
				c0.591-4.088,2.75-5.576,4.582-5.311c1.763,0.255,2.384,1.928,2.068,4.114l-1.814,12.548c-0.703,4.865,1.841,7.679,5.506,8.209
				l1.834,0.265c3.665,0.53,6.902-1.449,7.606-6.313l2.304-15.932C290.662,39.463,284.918,34.89,279.49,34.105z"/>
			<path style="fill:none;stroke:#B74FC6;stroke-width:6;" d="M260.377,31.423c0.372,0,0.752,0.028,1.136,0.084l2.679,0.387
				c3.594,0.52,5.161,3.122,5.027,5.549c2.329-2.167,5.31-3.463,8.528-3.463c0.574,0,1.156,0.041,1.742,0.126
				c5.428,0.785,11.173,5.358,9.807,14.805l-2.304,15.932c-0.63,4.355-3.29,6.397-6.47,6.397c-0.372,0-0.752-0.028-1.136-0.084
				l-1.834-0.265c-3.665-0.53-6.209-3.345-5.506-8.209l1.814-12.548c0.316-2.185-0.305-3.859-2.068-4.114
				c-0.136-0.02-0.274-0.03-0.413-0.03c-1.732,0-3.622,1.556-4.169,5.341l-1.509,10.433c-0.63,4.355-3.29,6.397-6.47,6.397
				c-0.372,0-0.752-0.028-1.136-0.084l-1.833-0.265c-3.666-0.53-6.209-3.345-5.506-8.209l3.15-21.783
				C254.537,33.465,257.197,31.423,260.377,31.423 M260.377,30.423L260.377,30.423c-4.014,0-6.803,2.712-7.459,7.254l-3.15,21.783
				c-0.37,2.56,0.078,4.794,1.297,6.463c1.147,1.571,2.896,2.567,5.056,2.879l1.833,0.265c0.431,0.062,0.861,0.094,1.279,0.094
				c4.014,0,6.803-2.712,7.46-7.254l1.509-10.433c0.479-3.31,2.012-4.484,3.18-4.484c0.091,0,0.181,0.007,0.27,0.019
				c0.508,0.073,0.841,0.316,1.05,0.765c0.246,0.528,0.305,1.295,0.172,2.216l-1.814,12.548c-0.37,2.559,0.078,4.794,1.297,6.463
				c1.147,1.571,2.896,2.567,5.056,2.879l1.834,0.265c0.431,0.062,0.861,0.094,1.279,0.094c4.014,0,6.803-2.712,7.46-7.254
				l2.304-15.932c0.659-4.558-0.228-8.507-2.565-11.419c-1.96-2.443-4.833-4.047-8.088-4.518c-0.626-0.09-1.26-0.136-1.885-0.136
				c-2.749,0-5.444,0.891-7.75,2.538c-0.601-2.142-2.406-4.143-5.661-4.614l-2.679-0.387
				C261.226,30.454,260.796,30.423,260.377,30.423L260.377,30.423z"/>
		</g>
	</g>
	<g>
		<g>
			<path style="fill:none;stroke:#FFFFFF;stroke-width:2;stroke-linejoin:round;" d="M94.153,33.837
				c-3.893-0.442-7.499,1.013-10.164,3.649c0.061-2.43-1.585-4.983-5.194-5.393l-2.69-0.305c-3.68-0.418-6.855,1.659-7.409,6.543
				l-1.152,10.145l-4.643-24.031c-0.522-2.7-1.138-5.062-2.314-6.594c-1.604-2.091-4.157-2.878-6.625-2.401l-1.234,0.238
				c-2.468,0.477-4.544,2.158-5.254,4.696c-0.52,1.861-0.213,4.282,0.309,6.982l3.979,20.595c0.522,2.7,0.829,5.121,0.309,6.982
				c-0.71,2.538-2.786,4.219-5.254,4.696l-1.234,0.238c-2.468,0.477-5.021-0.31-6.625-2.401c-1.176-1.533-1.792-3.894-2.314-6.594
				l-3.979-20.595c-1.461-7.56-4.619-9.83-10.868-8.623l-1.62,0.313c-6.248,1.207-8.334,4.491-6.874,12.051l4.918,25.455
				c2.444,12.65,12.223,18.123,24.719,15.708l9.874-1.908c6.35-1.227,11.222-4.277,13.728-9.21c0.829,2.465,2.874,3.873,5.427,4.163
				l1.84,0.209c3.68,0.418,6.855-1.659,7.409-6.543l1.189-10.475c0.466-4.105,2.578-5.657,4.418-5.449
				c1.769,0.201,2.442,1.855,2.193,4.049l-1.43,12.598c-0.554,4.884,2.074,7.619,5.754,8.037l1.84,0.209
				c3.681,0.418,6.855-1.659,7.41-6.543l1.816-15.995C105.484,38.851,99.603,34.456,94.153,33.837z"/>
			<path style="fill:none;stroke:#FFFFFF;stroke-width:2;stroke-linejoin:round;" d="M55.357,15.316c2,0,3.928,0.838,5.23,2.536
				c1.177,1.533,1.792,3.894,2.314,6.594l4.643,24.031l1.152-10.145c0.508-4.477,3.219-6.595,6.502-6.595
				c0.298,0,0.601,0.018,0.908,0.052l2.69,0.305c3.61,0.41,5.256,2.963,5.194,5.393c2.347-2.322,5.425-3.728,8.785-3.728
				c0.455,0,0.914,0.026,1.378,0.078c5.45,0.619,11.331,5.014,10.254,14.498l-1.816,15.995c-0.508,4.477-3.218,6.595-6.502,6.595
				c-0.298,0-0.602-0.018-0.908-0.052l-1.84-0.209c-3.68-0.418-6.309-3.153-5.754-8.037l1.43-12.598
				c0.249-2.194-0.423-3.848-2.193-4.049c-0.108-0.012-0.216-0.018-0.326-0.018c-1.756,0-3.654,1.603-4.093,5.467l-1.189,10.475
				c-0.508,4.477-3.218,6.595-6.501,6.595c-0.298,0-0.602-0.018-0.908-0.052l-1.84-0.209c-2.553-0.29-4.598-1.698-5.427-4.163
				c-2.506,4.933-7.378,7.983-13.728,9.21l-9.874,1.908c-1.927,0.372-3.787,0.557-5.568,0.557c-9.768,0-17.084-5.565-19.152-16.265
				l-4.918-25.455c-1.461-7.56,0.626-10.843,6.874-12.051l1.62-0.313c1.04-0.201,1.994-0.305,2.869-0.305
				c4.384,0,6.782,2.626,7.999,8.928l3.979,20.595c0.522,2.7,1.138,5.062,2.314,6.594c1.303,1.698,3.23,2.536,5.23,2.536
				c0.463,0,0.931-0.045,1.395-0.135l1.234-0.239c2.468-0.477,4.544-2.158,5.254-4.696c0.52-1.861,0.213-4.282-0.309-6.982
				l-3.979-20.595c-0.522-2.7-0.829-5.121-0.309-6.982c0.71-2.538,2.786-4.219,5.254-4.696l1.234-0.238
				C54.427,15.361,54.894,15.316,55.357,15.316 M55.357,14.316c-0.526,0-1.059,0.051-1.584,0.153l-1.234,0.238
				c-2.988,0.577-5.242,2.599-6.028,5.409c-0.596,2.133-0.213,4.837,0.29,7.441l3.979,20.595c0.457,2.363,0.812,4.789,0.328,6.523
				c-0.577,2.064-2.252,3.553-4.481,3.984l-1.234,0.239c-0.4,0.077-0.806,0.116-1.205,0.116c-1.8,0-3.376-0.762-4.437-2.145
				c-1.095-1.427-1.669-3.811-2.126-6.175l-3.979-20.595c-1.301-6.735-4.071-9.738-8.981-9.738c-0.931,0-1.931,0.106-3.058,0.324
				l-1.62,0.313c-6.906,1.334-9.199,5.289-7.666,13.222l4.918,25.455c2.097,10.852,9.435,17.075,20.133,17.075
				c1.845,0,3.782-0.193,5.758-0.575l9.874-1.908c6.102-1.179,10.717-3.962,13.47-8.095c1.169,1.709,3.049,2.795,5.383,3.06
				l1.84,0.209c0.343,0.039,0.686,0.059,1.021,0.059c4.099,0,6.971-2.867,7.495-7.482l1.189-10.475
				c0.384-3.38,1.909-4.58,3.099-4.58c0.071,0,0.142,0.004,0.213,0.012c0.51,0.058,0.851,0.291,1.072,0.732
				c0.262,0.521,0.344,1.285,0.239,2.21l-1.43,12.598c-0.292,2.57,0.225,4.79,1.494,6.42c1.195,1.535,2.973,2.477,5.142,2.723
				l1.84,0.209c0.343,0.039,0.687,0.059,1.021,0.059c4.099,0,6.971-2.867,7.495-7.482l1.816-15.995
				c1.11-9.78-4.793-14.884-11.135-15.604c-0.495-0.056-0.997-0.085-1.491-0.085c-2.895,0-5.702,0.976-8.067,2.779
				c-0.667-2.123-2.532-4.067-5.8-4.438l-2.69-0.305c-0.343-0.039-0.686-0.059-1.02-0.059c-4.099,0-6.971,2.867-7.495,7.482
				l-0.415,3.656l-3.404-17.618c-0.503-2.605-1.155-5.258-2.503-7.014C59.954,15.383,57.758,14.316,55.357,14.316L55.357,14.316z"/>
		</g>
		<g>
			<path style="fill:none;stroke:#FFFFFF;stroke-width:2;stroke-linejoin:round;" d="M114.944,32.989h-1.852
				c-3.703,0-6.624,2.422-6.624,7.337v22.01c0,4.915,2.921,7.337,6.624,7.337h1.852c3.704,0,6.624-2.422,6.624-7.337v-22.01
				C121.568,35.411,118.647,32.989,114.944,32.989z"/>
			<path style="fill:none;stroke:#FFFFFF;stroke-width:2;stroke-linejoin:round;" d="M114.944,32.989
				c3.704,0,6.624,2.422,6.624,7.337v22.01c0,4.915-2.92,7.337-6.624,7.337h-1.852c-3.703,0-6.624-2.422-6.624-7.337v-22.01
				c0-4.915,2.921-7.337,6.624-7.337H114.944 M114.944,31.989h-1.852c-4.631,0-7.624,3.272-7.624,8.337v22.01
				c0,5.064,2.993,8.337,7.624,8.337h1.852c4.631,0,7.624-3.272,7.624-8.337v-22.01C122.568,35.262,119.575,31.989,114.944,31.989
				L114.944,31.989z"/>
		</g>
		<g>
			<path style="fill:none;stroke:#FFFFFF;stroke-width:2;stroke-linejoin:round;" d="M126.393,18.162
				c0-6.463-5.637-11.826-12.375-11.826c-6.876,0-12.376,5.363-12.376,11.826c0,6.737,5.5,12.1,12.376,12.1
				C120.755,30.262,126.393,24.899,126.393,18.162z"/>
			<path style="fill:none;stroke:#FFFFFF;stroke-width:2;stroke-linejoin:round;" d="M114.018,6.336
				c6.737,0,12.375,5.363,12.375,11.826c0,6.737-5.637,12.1-12.375,12.1c-6.876,0-12.376-5.363-12.376-12.1
				C101.642,11.699,107.142,6.336,114.018,6.336 M114.018,5.336c-7.375,0-13.376,5.754-13.376,12.826c0,7.223,6,13.1,13.376,13.1
				c7.375,0,13.375-5.877,13.375-13.1C127.393,11.21,121.268,5.336,114.018,5.336L114.018,5.336z"/>
		</g>
		<g>
			<path style="fill:none;stroke:#FFFFFF;stroke-width:2;stroke-linejoin:round;" d="M247.808,44.011
				c-1.182-9.472-7.931-12.362-13.374-11.683c-3.887,0.485-7.05,2.746-9.022,5.935c-0.512-2.376-2.712-4.471-6.315-4.022
				l-2.686,0.335c-2.845,0.355-5.037,2.098-5.603,5.126c-3.961-7.021-11.48-11.367-20.069-11.367
				c-12.046,0-21.991,8.545-22.957,21.036c-0.724-0.208-1.513-0.317-2.361-0.317c-4.547,0-6.301,1.914-7.737,4.705
				c-1.675,3.271-3.988,4.228-7.418,4.228c-2.712,0-5.024-0.638-6.699-3.031c-1.436-2.073-2.074-5.503-2.074-9.411v-3.031
				c0-3.748,0.478-7.258,2.074-9.411c1.595-2.154,4.067-3.031,6.779-3.031c3.35,0,5.663,1.117,7.418,4.228
				c1.596,2.871,3.11,4.705,7.737,4.705c4.467,0,7.418-2.951,7.418-8.056c0-6.859-6.381-15.633-21.057-15.633h-1.675
				c-7.737,0-14.995,2.473-20.498,8.295c-5.184,5.503-7.258,12.363-7.258,20.1v0.638c0,7.896,2.154,14.676,7.258,20.1
				c5.584,5.902,12.762,8.295,20.498,8.295h1.675c10.238,0,16.389-4.194,19.179-9.112c4.05,6.616,11.374,10.694,19.697,10.694
				c10.288,0,19.047-6.232,21.987-15.785l0.746,5.976c0.609,4.877,3.806,6.919,7.482,6.46l1.837-0.229
				c3.675-0.458,6.273-3.223,5.665-8.1l-1.305-10.461c-0.511-4.099,1.177-6.105,3.014-6.334c1.767-0.221,2.809,1.229,3.083,3.42
				l1.57,12.581c0.609,4.877,3.807,6.919,7.482,6.46l1.838-0.229c3.675-0.459,6.273-3.223,5.665-8.1L247.808,44.011z
				 M190.739,58.787c-2.769,0-4.376-2.768-4.376-7.412c0-4.555,1.607-7.323,4.376-7.323c2.768,0,4.375,2.769,4.375,7.323
				C195.114,56.019,193.507,58.787,190.739,58.787z"/>
			<path style="fill:none;stroke:#FFFFFF;stroke-width:2;stroke-linejoin:round;" d="M151.862,15.316
				c14.676,0,21.057,8.774,21.057,15.633c0,5.105-2.951,8.056-7.418,8.056c-4.627,0-6.141-1.835-7.737-4.705
				c-1.755-3.111-4.068-4.228-7.418-4.228c-2.712,0-5.185,0.878-6.779,3.031c-1.596,2.153-2.074,5.663-2.074,9.411v3.031
				c0,3.908,0.638,7.338,2.074,9.411c1.675,2.393,3.988,3.031,6.699,3.031c3.43,0,5.743-0.957,7.418-4.228
				c1.436-2.791,3.19-4.705,7.737-4.705c0.848,0,1.637,0.109,2.361,0.317c0.966-12.491,10.911-21.036,22.957-21.036
				c8.589,0,16.108,4.347,20.069,11.367c0.566-3.028,2.758-4.771,5.603-5.126l2.686-0.335c0.332-0.041,0.652-0.061,0.96-0.061
				c3.035,0,4.89,1.925,5.355,4.083c1.971-3.189,5.135-5.45,9.022-5.935c0.499-0.062,1.008-0.094,1.523-0.094
				c5.109,0,10.777,3.174,11.851,11.777l1.993,15.974c0.609,4.877-1.99,7.642-5.665,8.1l-1.838,0.229
				c-0.335,0.042-0.666,0.063-0.991,0.063c-3.245,0-5.937-2.09-6.49-6.523l-1.57-12.581c-0.255-2.044-1.178-3.442-2.736-3.442
				c-0.112,0-0.228,0.007-0.347,0.022c-1.837,0.229-3.525,2.235-3.014,6.334l1.305,10.461c0.609,4.877-1.99,7.642-5.665,8.1
				l-1.837,0.229c-0.335,0.042-0.666,0.063-0.992,0.063c-3.245,0-5.937-2.09-6.49-6.523l-0.746-5.976
				c-2.939,9.553-11.699,15.785-21.987,15.785c-8.324,0-15.647-4.078-19.697-10.694c-2.791,4.918-8.942,9.112-19.179,9.112h-1.675
				c-7.737,0-14.915-2.393-20.498-8.295c-5.105-5.424-7.258-12.203-7.258-20.1v-0.638c0-7.737,2.074-14.596,7.258-20.1
				c5.503-5.822,12.762-8.295,20.498-8.295H151.862 M190.739,58.787c2.768,0,4.375-2.768,4.375-7.412
				c0-4.555-1.607-7.323-4.375-7.323c-2.769,0-4.376,2.769-4.376,7.323C186.363,56.019,187.97,58.787,190.739,58.787
				 M151.862,14.316h-1.675c-8.563,0-15.902,2.977-21.225,8.608c-5.068,5.38-7.532,12.179-7.532,20.786v0.638
				c0,8.602,2.463,15.401,7.53,20.785c5.405,5.714,12.546,8.61,21.226,8.61h1.675c8.57,0,15.462-2.995,19.195-8.274
				c4.407,6.2,11.649,9.856,19.681,9.856c9.31,0,17.506-5.028,21.47-12.845l0.269,2.16c0.569,4.564,3.436,7.399,7.482,7.399
				c0.365,0,0.74-0.024,1.116-0.071l1.837-0.229c2.166-0.27,3.933-1.232,5.111-2.78c1.251-1.645,1.743-3.87,1.423-6.436
				l-1.305-10.461c-0.42-3.367,0.775-5.047,2.146-5.218c0.076-0.01,0.151-0.014,0.223-0.014c1.284,0,1.647,1.795,1.743,2.566
				l1.57,12.581c0.569,4.564,3.437,7.399,7.482,7.399c0.365,0,0.74-0.024,1.115-0.07l1.838-0.229c2.166-0.27,3.933-1.232,5.111-2.78
				c1.251-1.645,1.743-3.87,1.422-6.436L248.8,43.887c-1.164-9.329-7.398-12.654-12.843-12.654c-0.55,0-1.104,0.034-1.647,0.102
				c-3.439,0.429-6.456,2.136-8.659,4.862c-1.01-1.678-2.895-3.017-5.594-3.017c-0.352,0-0.717,0.023-1.084,0.069l-2.686,0.335
				c-2.629,0.328-4.661,1.707-5.745,3.812c-4.386-6.338-11.639-10.061-19.803-10.061c-6.9,0-12.993,2.644-17.317,7.052
				c0.326-1.032,0.497-2.185,0.497-3.439c0-4.047-1.954-8.106-5.36-11.136C165.739,17.306,160.554,14.316,151.862,14.316
				L151.862,14.316z M150.266,56.988c-2.844,0-4.602-0.779-5.88-2.605c-1.22-1.762-1.893-4.902-1.893-8.838v-3.031
				c0-4.169,0.632-7.135,1.877-8.816c1.607-2.171,4.137-2.627,5.976-2.627c3.16,0,5.056,1.077,6.547,3.719
				c1.584,2.85,3.328,5.214,8.608,5.214c1.729,0,3.251-0.406,4.508-1.157c-1.616,2.753-2.696,5.897-3.112,9.313
				c-0.477-0.07-0.971-0.106-1.477-0.106c-4.918,0-7.005,2.098-8.626,5.248C155.419,55.99,153.65,56.988,150.266,56.988
				L150.266,56.988z M190.739,57.787c-3.133,0-3.376-4.907-3.376-6.412c0-1.483,0.243-6.323,3.376-6.323
				c3.132,0,3.375,4.84,3.375,6.323C194.114,52.88,193.87,57.787,190.739,57.787L190.739,57.787z"/>
		</g>
		<g>
			<path style="fill:none;stroke:#FFFFFF;stroke-width:2;stroke-linejoin:round;" d="M279.49,34.105
				c-3.877-0.561-7.526,0.783-10.27,3.337c0.135-2.427-1.432-5.029-5.027-5.549l-2.679-0.387c-3.666-0.53-6.903,1.449-7.606,6.313
				l-3.15,21.783c-0.703,4.865,1.84,7.679,5.506,8.209l1.833,0.265c3.665,0.53,6.903-1.449,7.606-6.313l1.509-10.433
				c0.591-4.088,2.75-5.576,4.582-5.311c1.763,0.255,2.384,1.928,2.068,4.114l-1.814,12.548c-0.703,4.865,1.841,7.679,5.506,8.209
				l1.834,0.265c3.665,0.53,6.902-1.449,7.606-6.313l2.304-15.932C290.662,39.463,284.918,34.89,279.49,34.105z"/>
			<path style="fill:none;stroke:#FFFFFF;stroke-width:2;stroke-linejoin:round;" d="M260.377,31.423
				c0.372,0,0.752,0.028,1.136,0.084l2.679,0.387c3.594,0.52,5.161,3.122,5.027,5.549c2.329-2.167,5.31-3.463,8.528-3.463
				c0.574,0,1.156,0.041,1.742,0.126c5.428,0.785,11.173,5.358,9.807,14.805l-2.304,15.932c-0.63,4.355-3.29,6.397-6.47,6.397
				c-0.372,0-0.752-0.028-1.136-0.084l-1.834-0.265c-3.665-0.53-6.209-3.345-5.506-8.209l1.814-12.548
				c0.316-2.185-0.305-3.859-2.068-4.114c-0.136-0.02-0.274-0.03-0.413-0.03c-1.732,0-3.622,1.556-4.169,5.341l-1.509,10.433
				c-0.63,4.355-3.29,6.397-6.47,6.397c-0.372,0-0.752-0.028-1.136-0.084l-1.833-0.265c-3.666-0.53-6.209-3.345-5.506-8.209
				l3.15-21.783C254.537,33.465,257.197,31.423,260.377,31.423 M260.377,30.423L260.377,30.423c-4.014,0-6.803,2.712-7.459,7.254
				l-3.15,21.783c-0.37,2.56,0.078,4.794,1.297,6.463c1.147,1.571,2.896,2.567,5.056,2.879l1.833,0.265
				c0.431,0.062,0.861,0.094,1.279,0.094c4.014,0,6.803-2.712,7.46-7.254l1.509-10.433c0.479-3.31,2.012-4.484,3.18-4.484
				c0.091,0,0.181,0.007,0.27,0.019c0.508,0.073,0.841,0.316,1.05,0.765c0.246,0.528,0.305,1.295,0.172,2.216l-1.814,12.548
				c-0.37,2.559,0.078,4.794,1.297,6.463c1.147,1.571,2.896,2.567,5.056,2.879l1.834,0.265c0.431,0.062,0.861,0.094,1.279,0.094
				c4.014,0,6.803-2.712,7.46-7.254l2.304-15.932c0.659-4.558-0.228-8.507-2.565-11.419c-1.96-2.443-4.833-4.047-8.088-4.518
				c-0.626-0.09-1.26-0.136-1.885-0.136c-2.749,0-5.444,0.891-7.75,2.538c-0.601-2.142-2.406-4.143-5.661-4.614l-2.679-0.387
				C261.226,30.454,260.796,30.423,260.377,30.423L260.377,30.423z"/>
		</g>
	</g>
	<g>
		<g>
			<radialGradient id="SVGID_1_" cx="151.1818" cy="41.0426" r="101.6951" gradientUnits="userSpaceOnUse">
				<stop  offset="0" style="stop-color:#3FA9F5"/>
				<stop  offset="0.2277" style="stop-color:#5D92E9;stop-opacity:0.7723"/>
				<stop  offset="0.7523" style="stop-color:#9E62D0;stop-opacity:0.2477"/>
				<stop  offset="1" style="stop-color:#B74FC6;stop-opacity:0"/>
			</radialGradient>
			<path style="fill:url(#SVGID_1_);" d="M94.153,33.837c-3.893-0.442-7.499,1.013-10.164,3.649c0.061-2.43-1.585-4.983-5.194-5.393
				l-2.69-0.305c-3.68-0.418-6.855,1.659-7.409,6.543l-1.152,10.145l-4.643-24.031c-0.522-2.7-1.138-5.062-2.314-6.594
				c-1.604-2.091-4.157-2.878-6.625-2.401l-1.234,0.238c-2.468,0.477-4.544,2.158-5.254,4.696c-0.52,1.861-0.213,4.282,0.309,6.982
				l3.979,20.595c0.522,2.7,0.829,5.121,0.309,6.982c-0.71,2.538-2.786,4.219-5.254,4.696l-1.234,0.238
				c-2.468,0.477-5.021-0.31-6.625-2.401c-1.176-1.533-1.792-3.894-2.314-6.594l-3.979-20.595c-1.461-7.56-4.619-9.83-10.868-8.623
				l-1.62,0.313c-6.248,1.207-8.334,4.491-6.874,12.051l4.918,25.455c2.444,12.65,12.223,18.123,24.719,15.708l9.874-1.908
				c6.35-1.227,11.222-4.277,13.728-9.21c0.829,2.465,2.874,3.873,5.427,4.163l1.84,0.209c3.68,0.418,6.855-1.659,7.409-6.543
				l1.189-10.475c0.466-4.105,2.578-5.657,4.418-5.449c1.769,0.201,2.442,1.855,2.193,4.049l-1.43,12.598
				c-0.554,4.884,2.074,7.619,5.754,8.037l1.84,0.209c3.681,0.418,6.855-1.659,7.41-6.543l1.816-15.995
				C105.484,38.851,99.603,34.456,94.153,33.837z"/>
			<radialGradient id="SVGID_2_" cx="151.1818" cy="41.0426" r="101.6951" gradientUnits="userSpaceOnUse">
				<stop  offset="0" style="stop-color:#3FA9F5"/>
				<stop  offset="0.2277" style="stop-color:#5D92E9;stop-opacity:0.7723"/>
				<stop  offset="0.7523" style="stop-color:#9E62D0;stop-opacity:0.2477"/>
				<stop  offset="1" style="stop-color:#B74FC6;stop-opacity:0"/>
			</radialGradient>
			<path style="fill:url(#SVGID_2_);" d="M55.357,15.316c2,0,3.928,0.838,5.23,2.536c1.177,1.533,1.792,3.894,2.314,6.594
				l4.643,24.031l1.152-10.145c0.508-4.477,3.219-6.595,6.502-6.595c0.298,0,0.601,0.018,0.908,0.052l2.69,0.305
				c3.61,0.41,5.256,2.963,5.194,5.393c2.347-2.322,5.425-3.728,8.785-3.728c0.455,0,0.914,0.026,1.378,0.078
				c5.45,0.619,11.331,5.014,10.254,14.498l-1.816,15.995c-0.508,4.477-3.218,6.595-6.502,6.595c-0.298,0-0.602-0.018-0.908-0.052
				l-1.84-0.209c-3.68-0.418-6.309-3.153-5.754-8.037l1.43-12.598c0.249-2.194-0.423-3.848-2.193-4.049
				c-0.108-0.012-0.216-0.018-0.326-0.018c-1.756,0-3.654,1.603-4.093,5.467l-1.189,10.475c-0.508,4.477-3.218,6.595-6.501,6.595
				c-0.298,0-0.602-0.018-0.908-0.052l-1.84-0.209c-2.553-0.29-4.598-1.698-5.427-4.163c-2.506,4.933-7.378,7.983-13.728,9.21
				l-9.874,1.908c-1.927,0.372-3.787,0.557-5.568,0.557c-9.768,0-17.084-5.565-19.152-16.265l-4.918-25.455
				c-1.461-7.56,0.626-10.843,6.874-12.051l1.62-0.313c1.04-0.201,1.994-0.305,2.869-0.305c4.384,0,6.782,2.626,7.999,8.928
				l3.979,20.595c0.522,2.7,1.138,5.062,2.314,6.594c1.303,1.698,3.23,2.536,5.23,2.536c0.463,0,0.931-0.045,1.395-0.135
				l1.234-0.239c2.468-0.477,4.544-2.158,5.254-4.696c0.52-1.861,0.213-4.282-0.309-6.982l-3.979-20.595
				c-0.522-2.7-0.829-5.121-0.309-6.982c0.71-2.538,2.786-4.219,5.254-4.696l1.234-0.238C54.427,15.361,54.894,15.316,55.357,15.316
				 M55.357,14.316c-0.526,0-1.059,0.051-1.584,0.153l-1.234,0.238c-2.988,0.577-5.242,2.599-6.028,5.409
				c-0.596,2.133-0.213,4.837,0.29,7.441l3.979,20.595c0.457,2.363,0.812,4.789,0.328,6.523c-0.577,2.064-2.252,3.553-4.481,3.984
				l-1.234,0.239c-0.4,0.077-0.806,0.116-1.205,0.116c-1.8,0-3.376-0.762-4.437-2.145c-1.095-1.427-1.669-3.811-2.126-6.175
				l-3.979-20.595c-1.301-6.735-4.071-9.738-8.981-9.738c-0.931,0-1.931,0.106-3.058,0.324l-1.62,0.313
				c-6.906,1.334-9.199,5.289-7.666,13.222l4.918,25.455c2.097,10.852,9.435,17.075,20.133,17.075c1.845,0,3.782-0.193,5.758-0.575
				l9.874-1.908c6.102-1.179,10.717-3.962,13.47-8.095c1.169,1.709,3.049,2.795,5.383,3.06l1.84,0.209
				c0.343,0.039,0.686,0.059,1.021,0.059c4.099,0,6.971-2.867,7.495-7.482l1.189-10.475c0.384-3.38,1.909-4.58,3.099-4.58
				c0.071,0,0.142,0.004,0.213,0.012c0.51,0.058,0.851,0.291,1.072,0.732c0.262,0.521,0.344,1.285,0.239,2.21l-1.43,12.598
				c-0.292,2.57,0.225,4.79,1.494,6.42c1.195,1.535,2.973,2.477,5.142,2.723l1.84,0.209c0.343,0.039,0.687,0.059,1.021,0.059
				c4.099,0,6.971-2.867,7.495-7.482l1.816-15.995c1.11-9.78-4.793-14.884-11.135-15.604c-0.495-0.056-0.997-0.085-1.491-0.085
				c-2.895,0-5.702,0.976-8.067,2.779c-0.667-2.123-2.532-4.067-5.8-4.438l-2.69-0.305c-0.343-0.039-0.686-0.059-1.02-0.059
				c-4.099,0-6.971,2.867-7.495,7.482l-0.415,3.656l-3.404-17.618c-0.503-2.605-1.155-5.258-2.503-7.014
				C59.954,15.383,57.758,14.316,55.357,14.316L55.357,14.316z"/>
		</g>
		<g>
			<radialGradient id="SVGID_3_" cx="151.1818" cy="41.0426" r="101.6951" gradientUnits="userSpaceOnUse">
				<stop  offset="0" style="stop-color:#3FA9F5"/>
				<stop  offset="0.2277" style="stop-color:#5D92E9;stop-opacity:0.7723"/>
				<stop  offset="0.7523" style="stop-color:#9E62D0;stop-opacity:0.2477"/>
				<stop  offset="1" style="stop-color:#B74FC6;stop-opacity:0"/>
			</radialGradient>
			<path style="fill:url(#SVGID_3_);" d="M114.944,32.989h-1.852c-3.703,0-6.624,2.422-6.624,7.337v22.01
				c0,4.915,2.921,7.337,6.624,7.337h1.852c3.704,0,6.624-2.422,6.624-7.337v-22.01C121.568,35.411,118.647,32.989,114.944,32.989z"
				/>
			<radialGradient id="SVGID_4_" cx="151.1818" cy="41.0426" r="101.6951" gradientUnits="userSpaceOnUse">
				<stop  offset="0" style="stop-color:#3FA9F5"/>
				<stop  offset="0.2277" style="stop-color:#5D92E9;stop-opacity:0.7723"/>
				<stop  offset="0.7523" style="stop-color:#9E62D0;stop-opacity:0.2477"/>
				<stop  offset="1" style="stop-color:#B74FC6;stop-opacity:0"/>
			</radialGradient>
			<path style="fill:url(#SVGID_4_);" d="M114.944,32.989c3.704,0,6.624,2.422,6.624,7.337v22.01c0,4.915-2.92,7.337-6.624,7.337
				h-1.852c-3.703,0-6.624-2.422-6.624-7.337v-22.01c0-4.915,2.921-7.337,6.624-7.337H114.944 M114.944,31.989h-1.852
				c-4.631,0-7.624,3.272-7.624,8.337v22.01c0,5.064,2.993,8.337,7.624,8.337h1.852c4.631,0,7.624-3.272,7.624-8.337v-22.01
				C122.568,35.262,119.575,31.989,114.944,31.989L114.944,31.989z"/>
		</g>
		<g>
			<radialGradient id="SVGID_5_" cx="151.1818" cy="41.0426" r="101.6951" gradientUnits="userSpaceOnUse">
				<stop  offset="0" style="stop-color:#3FA9F5"/>
				<stop  offset="0.2277" style="stop-color:#5D92E9;stop-opacity:0.7723"/>
				<stop  offset="0.7523" style="stop-color:#9E62D0;stop-opacity:0.2477"/>
				<stop  offset="1" style="stop-color:#B74FC6;stop-opacity:0"/>
			</radialGradient>
			<path style="fill:url(#SVGID_5_);" d="M126.393,18.162c0-6.463-5.637-11.826-12.375-11.826c-6.876,0-12.376,5.363-12.376,11.826
				c0,6.737,5.5,12.1,12.376,12.1C120.755,30.262,126.393,24.899,126.393,18.162z"/>
			<radialGradient id="SVGID_6_" cx="151.1818" cy="41.0426" r="101.6951" gradientUnits="userSpaceOnUse">
				<stop  offset="0" style="stop-color:#3FA9F5"/>
				<stop  offset="0.2277" style="stop-color:#5D92E9;stop-opacity:0.7723"/>
				<stop  offset="0.7523" style="stop-color:#9E62D0;stop-opacity:0.2477"/>
				<stop  offset="1" style="stop-color:#B74FC6;stop-opacity:0"/>
			</radialGradient>
			<path style="fill:url(#SVGID_6_);" d="M114.018,6.336c6.737,0,12.375,5.363,12.375,11.826c0,6.737-5.637,12.1-12.375,12.1
				c-6.876,0-12.376-5.363-12.376-12.1C101.642,11.699,107.142,6.336,114.018,6.336 M114.018,5.336
				c-7.375,0-13.376,5.754-13.376,12.826c0,7.223,6,13.1,13.376,13.1c7.375,0,13.375-5.877,13.375-13.1
				C127.393,11.21,121.268,5.336,114.018,5.336L114.018,5.336z"/>
		</g>
		<g>
			<radialGradient id="SVGID_7_" cx="151.1818" cy="41.0426" r="101.6951" gradientUnits="userSpaceOnUse">
				<stop  offset="0" style="stop-color:#3FA9F5"/>
				<stop  offset="0.2277" style="stop-color:#5D92E9;stop-opacity:0.7723"/>
				<stop  offset="0.7523" style="stop-color:#9E62D0;stop-opacity:0.2477"/>
				<stop  offset="1" style="stop-color:#B74FC6;stop-opacity:0"/>
			</radialGradient>
			<path style="fill:url(#SVGID_7_);" d="M247.808,44.011c-1.182-9.472-7.931-12.362-13.374-11.683
				c-3.887,0.485-7.05,2.746-9.022,5.935c-0.512-2.376-2.712-4.471-6.315-4.022l-2.686,0.335c-2.845,0.355-5.037,2.098-5.603,5.126
				c-3.961-7.021-11.48-11.367-20.069-11.367c-12.046,0-21.991,8.545-22.957,21.036c-0.724-0.208-1.513-0.317-2.361-0.317
				c-4.547,0-6.301,1.914-7.737,4.705c-1.675,3.271-3.988,4.228-7.418,4.228c-2.712,0-5.024-0.638-6.699-3.031
				c-1.436-2.073-2.074-5.503-2.074-9.411v-3.031c0-3.748,0.478-7.258,2.074-9.411c1.595-2.154,4.067-3.031,6.779-3.031
				c3.35,0,5.663,1.117,7.418,4.228c1.596,2.871,3.11,4.705,7.737,4.705c4.467,0,7.418-2.951,7.418-8.056
				c0-6.859-6.381-15.633-21.057-15.633h-1.675c-7.737,0-14.995,2.473-20.498,8.295c-5.184,5.503-7.258,12.363-7.258,20.1v0.638
				c0,7.896,2.154,14.676,7.258,20.1c5.584,5.902,12.762,8.295,20.498,8.295h1.675c10.238,0,16.389-4.194,19.179-9.112
				c4.05,6.616,11.374,10.694,19.697,10.694c10.288,0,19.047-6.232,21.987-15.785l0.746,5.976c0.609,4.877,3.806,6.919,7.482,6.46
				l1.837-0.229c3.675-0.458,6.273-3.223,5.665-8.1l-1.305-10.461c-0.511-4.099,1.177-6.105,3.014-6.334
				c1.767-0.221,2.809,1.229,3.083,3.42l1.57,12.581c0.609,4.877,3.807,6.919,7.482,6.46l1.838-0.229
				c3.675-0.459,6.273-3.223,5.665-8.1L247.808,44.011z M190.739,58.787c-2.769,0-4.376-2.768-4.376-7.412
				c0-4.555,1.607-7.323,4.376-7.323c2.768,0,4.375,2.769,4.375,7.323C195.114,56.019,193.507,58.787,190.739,58.787z"/>
			<radialGradient id="SVGID_8_" cx="151.1818" cy="41.0426" r="101.6951" gradientUnits="userSpaceOnUse">
				<stop  offset="0" style="stop-color:#3FA9F5"/>
				<stop  offset="0.2277" style="stop-color:#5D92E9;stop-opacity:0.7723"/>
				<stop  offset="0.7523" style="stop-color:#9E62D0;stop-opacity:0.2477"/>
				<stop  offset="1" style="stop-color:#B74FC6;stop-opacity:0"/>
			</radialGradient>
			<path style="fill:url(#SVGID_8_);" d="M151.862,15.316c14.676,0,21.057,8.774,21.057,15.633c0,5.105-2.951,8.056-7.418,8.056
				c-4.627,0-6.141-1.835-7.737-4.705c-1.755-3.111-4.068-4.228-7.418-4.228c-2.712,0-5.185,0.878-6.779,3.031
				c-1.596,2.153-2.074,5.663-2.074,9.411v3.031c0,3.908,0.638,7.338,2.074,9.411c1.675,2.393,3.988,3.031,6.699,3.031
				c3.43,0,5.743-0.957,7.418-4.228c1.436-2.791,3.19-4.705,7.737-4.705c0.848,0,1.637,0.109,2.361,0.317
				c0.966-12.491,10.911-21.036,22.957-21.036c8.589,0,16.108,4.347,20.069,11.367c0.566-3.028,2.758-4.771,5.603-5.126l2.686-0.335
				c0.332-0.041,0.652-0.061,0.96-0.061c3.035,0,4.89,1.925,5.355,4.083c1.971-3.189,5.135-5.45,9.022-5.935
				c0.499-0.062,1.008-0.094,1.523-0.094c5.109,0,10.777,3.174,11.851,11.777l1.993,15.974c0.609,4.877-1.99,7.642-5.665,8.1
				l-1.838,0.229c-0.335,0.042-0.666,0.063-0.991,0.063c-3.245,0-5.937-2.09-6.49-6.523l-1.57-12.581
				c-0.255-2.044-1.178-3.442-2.736-3.442c-0.112,0-0.228,0.007-0.347,0.022c-1.837,0.229-3.525,2.235-3.014,6.334l1.305,10.461
				c0.609,4.877-1.99,7.642-5.665,8.1l-1.837,0.229c-0.335,0.042-0.666,0.063-0.992,0.063c-3.245,0-5.937-2.09-6.49-6.523
				l-0.746-5.976c-2.939,9.553-11.699,15.785-21.987,15.785c-8.324,0-15.647-4.078-19.697-10.694
				c-2.791,4.918-8.942,9.112-19.179,9.112h-1.675c-7.737,0-14.915-2.393-20.498-8.295c-5.105-5.424-7.258-12.203-7.258-20.1v-0.638
				c0-7.737,2.074-14.596,7.258-20.1c5.503-5.822,12.762-8.295,20.498-8.295H151.862 M190.739,58.787
				c2.768,0,4.375-2.768,4.375-7.412c0-4.555-1.607-7.323-4.375-7.323c-2.769,0-4.376,2.769-4.376,7.323
				C186.363,56.019,187.97,58.787,190.739,58.787 M151.862,14.316h-1.675c-8.563,0-15.902,2.977-21.225,8.608
				c-5.068,5.38-7.532,12.179-7.532,20.786v0.638c0,8.602,2.463,15.401,7.53,20.785c5.405,5.714,12.546,8.61,21.226,8.61h1.675
				c8.57,0,15.462-2.995,19.195-8.274c4.407,6.2,11.649,9.856,19.681,9.856c9.31,0,17.506-5.028,21.47-12.845l0.269,2.16
				c0.569,4.564,3.436,7.399,7.482,7.399c0.365,0,0.74-0.024,1.116-0.071l1.837-0.229c2.166-0.27,3.933-1.232,5.111-2.78
				c1.251-1.645,1.743-3.87,1.423-6.436l-1.305-10.461c-0.42-3.367,0.775-5.047,2.146-5.218c0.076-0.01,0.151-0.014,0.223-0.014
				c1.284,0,1.647,1.795,1.743,2.566l1.57,12.581c0.569,4.564,3.437,7.399,7.482,7.399c0.365,0,0.74-0.024,1.115-0.07l1.838-0.229
				c2.166-0.27,3.933-1.232,5.111-2.78c1.251-1.645,1.743-3.87,1.422-6.436L248.8,43.887c-1.164-9.329-7.398-12.654-12.843-12.654
				c-0.55,0-1.104,0.034-1.647,0.102c-3.439,0.429-6.456,2.136-8.659,4.862c-1.01-1.678-2.895-3.017-5.594-3.017
				c-0.352,0-0.717,0.023-1.084,0.069l-2.686,0.335c-2.629,0.328-4.661,1.707-5.745,3.812c-4.386-6.338-11.639-10.061-19.803-10.061
				c-6.9,0-12.993,2.644-17.317,7.052c0.326-1.032,0.497-2.185,0.497-3.439c0-4.047-1.954-8.106-5.36-11.136
				C165.739,17.306,160.554,14.316,151.862,14.316L151.862,14.316z M150.266,56.988c-2.844,0-4.602-0.779-5.88-2.605
				c-1.22-1.762-1.893-4.902-1.893-8.838v-3.031c0-4.169,0.632-7.135,1.877-8.816c1.607-2.171,4.137-2.627,5.976-2.627
				c3.16,0,5.056,1.077,6.547,3.719c1.584,2.85,3.328,5.214,8.608,5.214c1.729,0,3.251-0.406,4.508-1.157
				c-1.616,2.753-2.696,5.897-3.112,9.313c-0.477-0.07-0.971-0.106-1.477-0.106c-4.918,0-7.005,2.098-8.626,5.248
				C155.419,55.99,153.65,56.988,150.266,56.988L150.266,56.988z M190.739,57.787c-3.133,0-3.376-4.907-3.376-6.412
				c0-1.483,0.243-6.323,3.376-6.323c3.132,0,3.375,4.84,3.375,6.323C194.114,52.88,193.87,57.787,190.739,57.787L190.739,57.787z"
				/>
		</g>
		<g>
			<radialGradient id="SVGID_9_" cx="151.1818" cy="41.0426" r="101.6951" gradientUnits="userSpaceOnUse">
				<stop  offset="0" style="stop-color:#3FA9F5"/>
				<stop  offset="0.2277" style="stop-color:#5D92E9;stop-opacity:0.7723"/>
				<stop  offset="0.7523" style="stop-color:#9E62D0;stop-opacity:0.2477"/>
				<stop  offset="1" style="stop-color:#B74FC6;stop-opacity:0"/>
			</radialGradient>
			<path style="fill:url(#SVGID_9_);" d="M279.49,34.105c-3.877-0.561-7.526,0.783-10.27,3.337c0.135-2.427-1.432-5.029-5.027-5.549
				l-2.679-0.387c-3.666-0.53-6.903,1.449-7.606,6.313l-3.15,21.783c-0.703,4.865,1.84,7.679,5.506,8.209l1.833,0.265
				c3.665,0.53,6.903-1.449,7.606-6.313l1.509-10.433c0.591-4.088,2.75-5.576,4.582-5.311c1.763,0.255,2.384,1.928,2.068,4.114
				l-1.814,12.548c-0.703,4.865,1.841,7.679,5.506,8.209l1.834,0.265c3.665,0.53,6.902-1.449,7.606-6.313l2.304-15.932
				C290.662,39.463,284.918,34.89,279.49,34.105z"/>
			<radialGradient id="SVGID_10_" cx="151.1818" cy="41.0426" r="101.6951" gradientUnits="userSpaceOnUse">
				<stop  offset="0" style="stop-color:#3FA9F5"/>
				<stop  offset="0.2277" style="stop-color:#5D92E9;stop-opacity:0.7723"/>
				<stop  offset="0.7523" style="stop-color:#9E62D0;stop-opacity:0.2477"/>
				<stop  offset="1" style="stop-color:#B74FC6;stop-opacity:0"/>
			</radialGradient>
			<path style="fill:url(#SVGID_10_);" d="M260.377,31.423c0.372,0,0.752,0.028,1.136,0.084l2.679,0.387
				c3.594,0.52,5.161,3.122,5.027,5.549c2.329-2.167,5.31-3.463,8.528-3.463c0.574,0,1.156,0.041,1.742,0.126
				c5.428,0.785,11.173,5.358,9.807,14.805l-2.304,15.932c-0.63,4.355-3.29,6.397-6.47,6.397c-0.372,0-0.752-0.028-1.136-0.084
				l-1.834-0.265c-3.665-0.53-6.209-3.345-5.506-8.209l1.814-12.548c0.316-2.185-0.305-3.859-2.068-4.114
				c-0.136-0.02-0.274-0.03-0.413-0.03c-1.732,0-3.622,1.556-4.169,5.341l-1.509,10.433c-0.63,4.355-3.29,6.397-6.47,6.397
				c-0.372,0-0.752-0.028-1.136-0.084l-1.833-0.265c-3.666-0.53-6.209-3.345-5.506-8.209l3.15-21.783
				C254.537,33.465,257.197,31.423,260.377,31.423 M260.377,30.423L260.377,30.423c-4.014,0-6.803,2.712-7.459,7.254l-3.15,21.783
				c-0.37,2.56,0.078,4.794,1.297,6.463c1.147,1.571,2.896,2.567,5.056,2.879l1.833,0.265c0.431,0.062,0.861,0.094,1.279,0.094
				c4.014,0,6.803-2.712,7.46-7.254l1.509-10.433c0.479-3.31,2.012-4.484,3.18-4.484c0.091,0,0.181,0.007,0.27,0.019
				c0.508,0.073,0.841,0.316,1.05,0.765c0.246,0.528,0.305,1.295,0.172,2.216l-1.814,12.548c-0.37,2.559,0.078,4.794,1.297,6.463
				c1.147,1.571,2.896,2.567,5.056,2.879l1.834,0.265c0.431,0.062,0.861,0.094,1.279,0.094c4.014,0,6.803-2.712,7.46-7.254
				l2.304-15.932c0.659-4.558-0.228-8.507-2.565-11.419c-1.96-2.443-4.833-4.047-8.088-4.518c-0.626-0.09-1.26-0.136-1.885-0.136
				c-2.749,0-5.444,0.891-7.75,2.538c-0.601-2.142-2.406-4.143-5.661-4.614l-2.679-0.387
				C261.226,30.454,260.796,30.423,260.377,30.423L260.377,30.423z"/>
		</g>
	</g>
	<g>
		<g>
			<radialGradient id="SVGID_11_" cx="283.1231" cy="45.8437" r="45.4227" gradientUnits="userSpaceOnUse">
				<stop  offset="0" style="stop-color:#FD9C08"/>
				<stop  offset="0.4853" style="stop-color:#D8746B;stop-opacity:0.5147"/>
				<stop  offset="0.8358" style="stop-color:#C059AD;stop-opacity:0.1642"/>
				<stop  offset="1" style="stop-color:#B74FC6;stop-opacity:0"/>
			</radialGradient>
			<path style="fill:url(#SVGID_11_);" d="M94.153,33.837c-3.893-0.442-7.499,1.013-10.164,3.649
				c0.061-2.43-1.585-4.983-5.194-5.393l-2.69-0.305c-3.68-0.418-6.855,1.659-7.409,6.543l-1.152,10.145l-4.643-24.031
				c-0.522-2.7-1.138-5.062-2.314-6.594c-1.604-2.091-4.157-2.878-6.625-2.401l-1.234,0.238c-2.468,0.477-4.544,2.158-5.254,4.696
				c-0.52,1.861-0.213,4.282,0.309,6.982l3.979,20.595c0.522,2.7,0.829,5.121,0.309,6.982c-0.71,2.538-2.786,4.219-5.254,4.696
				l-1.234,0.238c-2.468,0.477-5.021-0.31-6.625-2.401c-1.176-1.533-1.792-3.894-2.314-6.594l-3.979-20.595
				c-1.461-7.56-4.619-9.83-10.868-8.623l-1.62,0.313c-6.248,1.207-8.334,4.491-6.874,12.051l4.918,25.455
				c2.444,12.65,12.223,18.123,24.719,15.708l9.874-1.908c6.35-1.227,11.222-4.277,13.728-9.21c0.829,2.465,2.874,3.873,5.427,4.163
				l1.84,0.209c3.68,0.418,6.855-1.659,7.409-6.543l1.189-10.475c0.466-4.105,2.578-5.657,4.418-5.449
				c1.769,0.201,2.442,1.855,2.193,4.049l-1.43,12.598c-0.554,4.884,2.074,7.619,5.754,8.037l1.84,0.209
				c3.681,0.418,6.855-1.659,7.41-6.543l1.816-15.995C105.484,38.851,99.603,34.456,94.153,33.837z"/>
			<radialGradient id="SVGID_12_" cx="283.1231" cy="45.8437" r="45.4227" gradientUnits="userSpaceOnUse">
				<stop  offset="0" style="stop-color:#FD9C08"/>
				<stop  offset="0.4853" style="stop-color:#D8746B;stop-opacity:0.5147"/>
				<stop  offset="0.8358" style="stop-color:#C059AD;stop-opacity:0.1642"/>
				<stop  offset="1" style="stop-color:#B74FC6;stop-opacity:0"/>
			</radialGradient>
			<path style="fill:url(#SVGID_12_);" d="M55.357,15.316c2,0,3.928,0.838,5.23,2.536c1.177,1.533,1.792,3.894,2.314,6.594
				l4.643,24.031l1.152-10.145c0.508-4.477,3.219-6.595,6.502-6.595c0.298,0,0.601,0.018,0.908,0.052l2.69,0.305
				c3.61,0.41,5.256,2.963,5.194,5.393c2.347-2.322,5.425-3.728,8.785-3.728c0.455,0,0.914,0.026,1.378,0.078
				c5.45,0.619,11.331,5.014,10.254,14.498l-1.816,15.995c-0.508,4.477-3.218,6.595-6.502,6.595c-0.298,0-0.602-0.018-0.908-0.052
				l-1.84-0.209c-3.68-0.418-6.309-3.153-5.754-8.037l1.43-12.598c0.249-2.194-0.423-3.848-2.193-4.049
				c-0.108-0.012-0.216-0.018-0.326-0.018c-1.756,0-3.654,1.603-4.093,5.467l-1.189,10.475c-0.508,4.477-3.218,6.595-6.501,6.595
				c-0.298,0-0.602-0.018-0.908-0.052l-1.84-0.209c-2.553-0.29-4.598-1.698-5.427-4.163c-2.506,4.933-7.378,7.983-13.728,9.21
				l-9.874,1.908c-1.927,0.372-3.787,0.557-5.568,0.557c-9.768,0-17.084-5.565-19.152-16.265l-4.918-25.455
				c-1.461-7.56,0.626-10.843,6.874-12.051l1.62-0.313c1.04-0.201,1.994-0.305,2.869-0.305c4.384,0,6.782,2.626,7.999,8.928
				l3.979,20.595c0.522,2.7,1.138,5.062,2.314,6.594c1.303,1.698,3.23,2.536,5.23,2.536c0.463,0,0.931-0.045,1.395-0.135
				l1.234-0.239c2.468-0.477,4.544-2.158,5.254-4.696c0.52-1.861,0.213-4.282-0.309-6.982l-3.979-20.595
				c-0.522-2.7-0.829-5.121-0.309-6.982c0.71-2.538,2.786-4.219,5.254-4.696l1.234-0.238C54.427,15.361,54.894,15.316,55.357,15.316
				 M55.357,14.316c-0.526,0-1.059,0.051-1.584,0.153l-1.234,0.238c-2.988,0.577-5.242,2.599-6.028,5.409
				c-0.596,2.133-0.213,4.837,0.29,7.441l3.979,20.595c0.457,2.363,0.812,4.789,0.328,6.523c-0.577,2.064-2.252,3.553-4.481,3.984
				l-1.234,0.239c-0.4,0.077-0.806,0.116-1.205,0.116c-1.8,0-3.376-0.762-4.437-2.145c-1.095-1.427-1.669-3.811-2.126-6.175
				l-3.979-20.595c-1.301-6.735-4.071-9.738-8.981-9.738c-0.931,0-1.931,0.106-3.058,0.324l-1.62,0.313
				c-6.906,1.334-9.199,5.289-7.666,13.222l4.918,25.455c2.097,10.852,9.435,17.075,20.133,17.075c1.845,0,3.782-0.193,5.758-0.575
				l9.874-1.908c6.102-1.179,10.717-3.962,13.47-8.095c1.169,1.709,3.049,2.795,5.383,3.06l1.84,0.209
				c0.343,0.039,0.686,0.059,1.021,0.059c4.099,0,6.971-2.867,7.495-7.482l1.189-10.475c0.384-3.38,1.909-4.58,3.099-4.58
				c0.071,0,0.142,0.004,0.213,0.012c0.51,0.058,0.851,0.291,1.072,0.732c0.262,0.521,0.344,1.285,0.239,2.21l-1.43,12.598
				c-0.292,2.57,0.225,4.79,1.494,6.42c1.195,1.535,2.973,2.477,5.142,2.723l1.84,0.209c0.343,0.039,0.687,0.059,1.021,0.059
				c4.099,0,6.971-2.867,7.495-7.482l1.816-15.995c1.11-9.78-4.793-14.884-11.135-15.604c-0.495-0.056-0.997-0.085-1.491-0.085
				c-2.895,0-5.702,0.976-8.067,2.779c-0.667-2.123-2.532-4.067-5.8-4.438l-2.69-0.305c-0.343-0.039-0.686-0.059-1.02-0.059
				c-4.099,0-6.971,2.867-7.495,7.482l-0.415,3.656l-3.404-17.618c-0.503-2.605-1.155-5.258-2.503-7.014
				C59.954,15.383,57.758,14.316,55.357,14.316L55.357,14.316z"/>
		</g>
		<g>
			<radialGradient id="SVGID_13_" cx="283.1231" cy="45.8437" r="45.4227" gradientUnits="userSpaceOnUse">
				<stop  offset="0" style="stop-color:#FD9C08"/>
				<stop  offset="0.4853" style="stop-color:#D8746B;stop-opacity:0.5147"/>
				<stop  offset="0.8358" style="stop-color:#C059AD;stop-opacity:0.1642"/>
				<stop  offset="1" style="stop-color:#B74FC6;stop-opacity:0"/>
			</radialGradient>
			<path style="fill:url(#SVGID_13_);" d="M114.944,32.989h-1.852c-3.703,0-6.624,2.422-6.624,7.337v22.01
				c0,4.915,2.921,7.337,6.624,7.337h1.852c3.704,0,6.624-2.422,6.624-7.337v-22.01C121.568,35.411,118.647,32.989,114.944,32.989z"
				/>
			<radialGradient id="SVGID_14_" cx="283.1231" cy="45.8437" r="45.4227" gradientUnits="userSpaceOnUse">
				<stop  offset="0" style="stop-color:#FD9C08"/>
				<stop  offset="0.4853" style="stop-color:#D8746B;stop-opacity:0.5147"/>
				<stop  offset="0.8358" style="stop-color:#C059AD;stop-opacity:0.1642"/>
				<stop  offset="1" style="stop-color:#B74FC6;stop-opacity:0"/>
			</radialGradient>
			<path style="fill:url(#SVGID_14_);" d="M114.944,32.989c3.704,0,6.624,2.422,6.624,7.337v22.01c0,4.915-2.92,7.337-6.624,7.337
				h-1.852c-3.703,0-6.624-2.422-6.624-7.337v-22.01c0-4.915,2.921-7.337,6.624-7.337H114.944 M114.944,31.989h-1.852
				c-4.631,0-7.624,3.272-7.624,8.337v22.01c0,5.064,2.993,8.337,7.624,8.337h1.852c4.631,0,7.624-3.272,7.624-8.337v-22.01
				C122.568,35.262,119.575,31.989,114.944,31.989L114.944,31.989z"/>
		</g>
		<g>
			<radialGradient id="SVGID_15_" cx="283.1231" cy="45.8437" r="45.4227" gradientUnits="userSpaceOnUse">
				<stop  offset="0" style="stop-color:#FD9C08"/>
				<stop  offset="0.4853" style="stop-color:#D8746B;stop-opacity:0.5147"/>
				<stop  offset="0.8358" style="stop-color:#C059AD;stop-opacity:0.1642"/>
				<stop  offset="1" style="stop-color:#B74FC6;stop-opacity:0"/>
			</radialGradient>
			<path style="fill:url(#SVGID_15_);" d="M126.393,18.162c0-6.463-5.637-11.826-12.375-11.826c-6.876,0-12.376,5.363-12.376,11.826
				c0,6.737,5.5,12.1,12.376,12.1C120.755,30.262,126.393,24.899,126.393,18.162z"/>
			<radialGradient id="SVGID_16_" cx="283.1231" cy="45.8437" r="45.4227" gradientUnits="userSpaceOnUse">
				<stop  offset="0" style="stop-color:#FD9C08"/>
				<stop  offset="0.4853" style="stop-color:#D8746B;stop-opacity:0.5147"/>
				<stop  offset="0.8358" style="stop-color:#C059AD;stop-opacity:0.1642"/>
				<stop  offset="1" style="stop-color:#B74FC6;stop-opacity:0"/>
			</radialGradient>
			<path style="fill:url(#SVGID_16_);" d="M114.018,6.336c6.737,0,12.375,5.363,12.375,11.826c0,6.737-5.637,12.1-12.375,12.1
				c-6.876,0-12.376-5.363-12.376-12.1C101.642,11.699,107.142,6.336,114.018,6.336 M114.018,5.336
				c-7.375,0-13.376,5.754-13.376,12.826c0,7.223,6,13.1,13.376,13.1c7.375,0,13.375-5.877,13.375-13.1
				C127.393,11.21,121.268,5.336,114.018,5.336L114.018,5.336z"/>
		</g>
		<g>
			<radialGradient id="SVGID_17_" cx="283.1231" cy="45.8437" r="45.4227" gradientUnits="userSpaceOnUse">
				<stop  offset="0" style="stop-color:#FD9C08"/>
				<stop  offset="0.4853" style="stop-color:#D8746B;stop-opacity:0.5147"/>
				<stop  offset="0.8358" style="stop-color:#C059AD;stop-opacity:0.1642"/>
				<stop  offset="1" style="stop-color:#B74FC6;stop-opacity:0"/>
			</radialGradient>
			<path style="fill:url(#SVGID_17_);" d="M247.808,44.011c-1.182-9.472-7.931-12.362-13.374-11.683
				c-3.887,0.485-7.05,2.746-9.022,5.935c-0.512-2.376-2.712-4.471-6.315-4.022l-2.686,0.335c-2.845,0.355-5.037,2.098-5.603,5.126
				c-3.961-7.021-11.48-11.367-20.069-11.367c-12.046,0-21.991,8.545-22.957,21.036c-0.724-0.208-1.513-0.317-2.361-0.317
				c-4.547,0-6.301,1.914-7.737,4.705c-1.675,3.271-3.988,4.228-7.418,4.228c-2.712,0-5.024-0.638-6.699-3.031
				c-1.436-2.073-2.074-5.503-2.074-9.411v-3.031c0-3.748,0.478-7.258,2.074-9.411c1.595-2.154,4.067-3.031,6.779-3.031
				c3.35,0,5.663,1.117,7.418,4.228c1.596,2.871,3.11,4.705,7.737,4.705c4.467,0,7.418-2.951,7.418-8.056
				c0-6.859-6.381-15.633-21.057-15.633h-1.675c-7.737,0-14.995,2.473-20.498,8.295c-5.184,5.503-7.258,12.363-7.258,20.1v0.638
				c0,7.896,2.154,14.676,7.258,20.1c5.584,5.902,12.762,8.295,20.498,8.295h1.675c10.238,0,16.389-4.194,19.179-9.112
				c4.05,6.616,11.374,10.694,19.697,10.694c10.288,0,19.047-6.232,21.987-15.785l0.746,5.976c0.609,4.877,3.806,6.919,7.482,6.46
				l1.837-0.229c3.675-0.458,6.273-3.223,5.665-8.1l-1.305-10.461c-0.511-4.099,1.177-6.105,3.014-6.334
				c1.767-0.221,2.809,1.229,3.083,3.42l1.57,12.581c0.609,4.877,3.807,6.919,7.482,6.46l1.838-0.229
				c3.675-0.459,6.273-3.223,5.665-8.1L247.808,44.011z M190.739,58.787c-2.769,0-4.376-2.768-4.376-7.412
				c0-4.555,1.607-7.323,4.376-7.323c2.768,0,4.375,2.769,4.375,7.323C195.114,56.019,193.507,58.787,190.739,58.787z"/>
			<radialGradient id="SVGID_18_" cx="283.1231" cy="45.8437" r="45.4227" gradientUnits="userSpaceOnUse">
				<stop  offset="0" style="stop-color:#FD9C08"/>
				<stop  offset="0.4853" style="stop-color:#D8746B;stop-opacity:0.5147"/>
				<stop  offset="0.8358" style="stop-color:#C059AD;stop-opacity:0.1642"/>
				<stop  offset="1" style="stop-color:#B74FC6;stop-opacity:0"/>
			</radialGradient>
			<path style="fill:url(#SVGID_18_);" d="M151.862,15.316c14.676,0,21.057,8.774,21.057,15.633c0,5.105-2.951,8.056-7.418,8.056
				c-4.627,0-6.141-1.835-7.737-4.705c-1.755-3.111-4.068-4.228-7.418-4.228c-2.712,0-5.185,0.878-6.779,3.031
				c-1.596,2.153-2.074,5.663-2.074,9.411v3.031c0,3.908,0.638,7.338,2.074,9.411c1.675,2.393,3.988,3.031,6.699,3.031
				c3.43,0,5.743-0.957,7.418-4.228c1.436-2.791,3.19-4.705,7.737-4.705c0.848,0,1.637,0.109,2.361,0.317
				c0.966-12.491,10.911-21.036,22.957-21.036c8.589,0,16.108,4.347,20.069,11.367c0.566-3.028,2.758-4.771,5.603-5.126l2.686-0.335
				c0.332-0.041,0.652-0.061,0.96-0.061c3.035,0,4.89,1.925,5.355,4.083c1.971-3.189,5.135-5.45,9.022-5.935
				c0.499-0.062,1.008-0.094,1.523-0.094c5.109,0,10.777,3.174,11.851,11.777l1.993,15.974c0.609,4.877-1.99,7.642-5.665,8.1
				l-1.838,0.229c-0.335,0.042-0.666,0.063-0.991,0.063c-3.245,0-5.937-2.09-6.49-6.523l-1.57-12.581
				c-0.255-2.044-1.178-3.442-2.736-3.442c-0.112,0-0.228,0.007-0.347,0.022c-1.837,0.229-3.525,2.235-3.014,6.334l1.305,10.461
				c0.609,4.877-1.99,7.642-5.665,8.1l-1.837,0.229c-0.335,0.042-0.666,0.063-0.992,0.063c-3.245,0-5.937-2.09-6.49-6.523
				l-0.746-5.976c-2.939,9.553-11.699,15.785-21.987,15.785c-8.324,0-15.647-4.078-19.697-10.694
				c-2.791,4.918-8.942,9.112-19.179,9.112h-1.675c-7.737,0-14.915-2.393-20.498-8.295c-5.105-5.424-7.258-12.203-7.258-20.1v-0.638
				c0-7.737,2.074-14.596,7.258-20.1c5.503-5.822,12.762-8.295,20.498-8.295H151.862 M190.739,58.787
				c2.768,0,4.375-2.768,4.375-7.412c0-4.555-1.607-7.323-4.375-7.323c-2.769,0-4.376,2.769-4.376,7.323
				C186.363,56.019,187.97,58.787,190.739,58.787 M151.862,14.316h-1.675c-8.563,0-15.902,2.977-21.225,8.608
				c-5.068,5.38-7.532,12.179-7.532,20.786v0.638c0,8.602,2.463,15.401,7.53,20.785c5.405,5.714,12.546,8.61,21.226,8.61h1.675
				c8.57,0,15.462-2.995,19.195-8.274c4.407,6.2,11.649,9.856,19.681,9.856c9.31,0,17.506-5.028,21.47-12.845l0.269,2.16
				c0.569,4.564,3.436,7.399,7.482,7.399c0.365,0,0.74-0.024,1.116-0.071l1.837-0.229c2.166-0.27,3.933-1.232,5.111-2.78
				c1.251-1.645,1.743-3.87,1.423-6.436l-1.305-10.461c-0.42-3.367,0.775-5.047,2.146-5.218c0.076-0.01,0.151-0.014,0.223-0.014
				c1.284,0,1.647,1.795,1.743,2.566l1.57,12.581c0.569,4.564,3.437,7.399,7.482,7.399c0.365,0,0.74-0.024,1.115-0.07l1.838-0.229
				c2.166-0.27,3.933-1.232,5.111-2.78c1.251-1.645,1.743-3.87,1.422-6.436L248.8,43.887c-1.164-9.329-7.398-12.654-12.843-12.654
				c-0.55,0-1.104,0.034-1.647,0.102c-3.439,0.429-6.456,2.136-8.659,4.862c-1.01-1.678-2.895-3.017-5.594-3.017
				c-0.352,0-0.717,0.023-1.084,0.069l-2.686,0.335c-2.629,0.328-4.661,1.707-5.745,3.812c-4.386-6.338-11.639-10.061-19.803-10.061
				c-6.9,0-12.993,2.644-17.317,7.052c0.326-1.032,0.497-2.185,0.497-3.439c0-4.047-1.954-8.106-5.36-11.136
				C165.739,17.306,160.554,14.316,151.862,14.316L151.862,14.316z M150.266,56.988c-2.844,0-4.602-0.779-5.88-2.605
				c-1.22-1.762-1.893-4.902-1.893-8.838v-3.031c0-4.169,0.632-7.135,1.877-8.816c1.607-2.171,4.137-2.627,5.976-2.627
				c3.16,0,5.056,1.077,6.547,3.719c1.584,2.85,3.328,5.214,8.608,5.214c1.729,0,3.251-0.406,4.508-1.157
				c-1.616,2.753-2.696,5.897-3.112,9.313c-0.477-0.07-0.971-0.106-1.477-0.106c-4.918,0-7.005,2.098-8.626,5.248
				C155.419,55.99,153.65,56.988,150.266,56.988L150.266,56.988z M190.739,57.787c-3.133,0-3.376-4.907-3.376-6.412
				c0-1.483,0.243-6.323,3.376-6.323c3.132,0,3.375,4.84,3.375,6.323C194.114,52.88,193.87,57.787,190.739,57.787L190.739,57.787z"
				/>
		</g>
		<g>
			<radialGradient id="SVGID_19_" cx="283.1231" cy="45.8437" r="45.4227" gradientUnits="userSpaceOnUse">
				<stop  offset="0" style="stop-color:#FD9C08"/>
				<stop  offset="0.4853" style="stop-color:#D8746B;stop-opacity:0.5147"/>
				<stop  offset="0.8358" style="stop-color:#C059AD;stop-opacity:0.1642"/>
				<stop  offset="1" style="stop-color:#B74FC6;stop-opacity:0"/>
			</radialGradient>
			<path style="fill:url(#SVGID_19_);" d="M279.49,34.105c-3.877-0.561-7.526,0.783-10.27,3.337
				c0.135-2.427-1.432-5.029-5.027-5.549l-2.679-0.387c-3.666-0.53-6.903,1.449-7.606,6.313l-3.15,21.783
				c-0.703,4.865,1.84,7.679,5.506,8.209l1.833,0.265c3.665,0.53,6.903-1.449,7.606-6.313l1.509-10.433
				c0.591-4.088,2.75-5.576,4.582-5.311c1.763,0.255,2.384,1.928,2.068,4.114l-1.814,12.548c-0.703,4.865,1.841,7.679,5.506,8.209
				l1.834,0.265c3.665,0.53,6.902-1.449,7.606-6.313l2.304-15.932C290.662,39.463,284.918,34.89,279.49,34.105z"/>
			<radialGradient id="SVGID_20_" cx="283.1231" cy="45.8437" r="45.4227" gradientUnits="userSpaceOnUse">
				<stop  offset="0" style="stop-color:#FD9C08"/>
				<stop  offset="0.4853" style="stop-color:#D8746B;stop-opacity:0.5147"/>
				<stop  offset="0.8358" style="stop-color:#C059AD;stop-opacity:0.1642"/>
				<stop  offset="1" style="stop-color:#B74FC6;stop-opacity:0"/>
			</radialGradient>
			<path style="fill:url(#SVGID_20_);" d="M260.377,31.423c0.372,0,0.752,0.028,1.136,0.084l2.679,0.387
				c3.594,0.52,5.161,3.122,5.027,5.549c2.329-2.167,5.31-3.463,8.528-3.463c0.574,0,1.156,0.041,1.742,0.126
				c5.428,0.785,11.173,5.358,9.807,14.805l-2.304,15.932c-0.63,4.355-3.29,6.397-6.47,6.397c-0.372,0-0.752-0.028-1.136-0.084
				l-1.834-0.265c-3.665-0.53-6.209-3.345-5.506-8.209l1.814-12.548c0.316-2.185-0.305-3.859-2.068-4.114
				c-0.136-0.02-0.274-0.03-0.413-0.03c-1.732,0-3.622,1.556-4.169,5.341l-1.509,10.433c-0.63,4.355-3.29,6.397-6.47,6.397
				c-0.372,0-0.752-0.028-1.136-0.084l-1.833-0.265c-3.666-0.53-6.209-3.345-5.506-8.209l3.15-21.783
				C254.537,33.465,257.197,31.423,260.377,31.423 M260.377,30.423L260.377,30.423c-4.014,0-6.803,2.712-7.459,7.254l-3.15,21.783
				c-0.37,2.56,0.078,4.794,1.297,6.463c1.147,1.571,2.896,2.567,5.056,2.879l1.833,0.265c0.431,0.062,0.861,0.094,1.279,0.094
				c4.014,0,6.803-2.712,7.46-7.254l1.509-10.433c0.479-3.31,2.012-4.484,3.18-4.484c0.091,0,0.181,0.007,0.27,0.019
				c0.508,0.073,0.841,0.316,1.05,0.765c0.246,0.528,0.305,1.295,0.172,2.216l-1.814,12.548c-0.37,2.559,0.078,4.794,1.297,6.463
				c1.147,1.571,2.896,2.567,5.056,2.879l1.834,0.265c0.431,0.062,0.861,0.094,1.279,0.094c4.014,0,6.803-2.712,7.46-7.254
				l2.304-15.932c0.659-4.558-0.228-8.507-2.565-11.419c-1.96-2.443-4.833-4.047-8.088-4.518c-0.626-0.09-1.26-0.136-1.885-0.136
				c-2.749,0-5.444,0.891-7.75,2.538c-0.601-2.142-2.406-4.143-5.661-4.614l-2.679-0.387
				C261.226,30.454,260.796,30.423,260.377,30.423L260.377,30.423z"/>
		</g>
	</g>
	<g>
		<g>
			<radialGradient id="SVGID_21_" cx="33.6768" cy="70.1923" r="44.5204" gradientUnits="userSpaceOnUse">
				<stop  offset="0" style="stop-color:#5ED28C"/>
				<stop  offset="0.0734" style="stop-color:#5ACE94;stop-opacity:0.9266"/>
				<stop  offset="0.703" style="stop-color:#3AB1D5;stop-opacity:0.297"/>
				<stop  offset="1" style="stop-color:#2EA6EE;stop-opacity:0"/>
			</radialGradient>
			<path style="fill:url(#SVGID_21_);" d="M94.153,33.837c-3.893-0.442-7.499,1.013-10.164,3.649
				c0.061-2.43-1.585-4.983-5.194-5.393l-2.69-0.305c-3.68-0.418-6.855,1.659-7.409,6.543l-1.152,10.145l-4.643-24.031
				c-0.522-2.7-1.138-5.062-2.314-6.594c-1.604-2.091-4.157-2.878-6.625-2.401l-1.234,0.238c-2.468,0.477-4.544,2.158-5.254,4.696
				c-0.52,1.861-0.213,4.282,0.309,6.982l3.979,20.595c0.522,2.7,0.829,5.121,0.309,6.982c-0.71,2.538-2.786,4.219-5.254,4.696
				l-1.234,0.238c-2.468,0.477-5.021-0.31-6.625-2.401c-1.176-1.533-1.792-3.894-2.314-6.594l-3.979-20.595
				c-1.461-7.56-4.619-9.83-10.868-8.623l-1.62,0.313c-6.248,1.207-8.334,4.491-6.874,12.051l4.918,25.455
				c2.444,12.65,12.223,18.123,24.719,15.708l9.874-1.908c6.35-1.227,11.222-4.277,13.728-9.21c0.829,2.465,2.874,3.873,5.427,4.163
				l1.84,0.209c3.68,0.418,6.855-1.659,7.409-6.543l1.189-10.475c0.466-4.105,2.578-5.657,4.418-5.449
				c1.769,0.201,2.442,1.855,2.193,4.049l-1.43,12.598c-0.554,4.884,2.074,7.619,5.754,8.037l1.84,0.209
				c3.681,0.418,6.855-1.659,7.41-6.543l1.816-15.995C105.484,38.851,99.603,34.456,94.153,33.837z"/>
			<radialGradient id="SVGID_22_" cx="33.6768" cy="70.1923" r="44.5204" gradientUnits="userSpaceOnUse">
				<stop  offset="0" style="stop-color:#5ED28C"/>
				<stop  offset="0.0734" style="stop-color:#5ACE94;stop-opacity:0.9266"/>
				<stop  offset="0.703" style="stop-color:#3AB1D5;stop-opacity:0.297"/>
				<stop  offset="1" style="stop-color:#2EA6EE;stop-opacity:0"/>
			</radialGradient>
			<path style="fill:url(#SVGID_22_);" d="M55.357,15.316c2,0,3.928,0.838,5.23,2.536c1.177,1.533,1.792,3.894,2.314,6.594
				l4.643,24.031l1.152-10.145c0.508-4.477,3.219-6.595,6.502-6.595c0.298,0,0.601,0.018,0.908,0.052l2.69,0.305
				c3.61,0.41,5.256,2.963,5.194,5.393c2.347-2.322,5.425-3.728,8.785-3.728c0.455,0,0.914,0.026,1.378,0.078
				c5.45,0.619,11.331,5.014,10.254,14.498l-1.816,15.995c-0.508,4.477-3.218,6.595-6.502,6.595c-0.298,0-0.602-0.018-0.908-0.052
				l-1.84-0.209c-3.68-0.418-6.309-3.153-5.754-8.037l1.43-12.598c0.249-2.194-0.423-3.848-2.193-4.049
				c-0.108-0.012-0.216-0.018-0.326-0.018c-1.756,0-3.654,1.603-4.093,5.467l-1.189,10.475c-0.508,4.477-3.218,6.595-6.501,6.595
				c-0.298,0-0.602-0.018-0.908-0.052l-1.84-0.209c-2.553-0.29-4.598-1.698-5.427-4.163c-2.506,4.933-7.378,7.983-13.728,9.21
				l-9.874,1.908c-1.927,0.372-3.787,0.557-5.568,0.557c-9.768,0-17.084-5.565-19.152-16.265l-4.918-25.455
				c-1.461-7.56,0.626-10.843,6.874-12.051l1.62-0.313c1.04-0.201,1.994-0.305,2.869-0.305c4.384,0,6.782,2.626,7.999,8.928
				l3.979,20.595c0.522,2.7,1.138,5.062,2.314,6.594c1.303,1.698,3.23,2.536,5.23,2.536c0.463,0,0.931-0.045,1.395-0.135
				l1.234-0.239c2.468-0.477,4.544-2.158,5.254-4.696c0.52-1.861,0.213-4.282-0.309-6.982l-3.979-20.595
				c-0.522-2.7-0.829-5.121-0.309-6.982c0.71-2.538,2.786-4.219,5.254-4.696l1.234-0.238C54.427,15.361,54.894,15.316,55.357,15.316
				 M55.357,14.316c-0.526,0-1.059,0.051-1.584,0.153l-1.234,0.238c-2.988,0.577-5.242,2.599-6.028,5.409
				c-0.596,2.133-0.213,4.837,0.29,7.441l3.979,20.595c0.457,2.363,0.812,4.789,0.328,6.523c-0.577,2.064-2.252,3.553-4.481,3.984
				l-1.234,0.239c-0.4,0.077-0.806,0.116-1.205,0.116c-1.8,0-3.376-0.762-4.437-2.145c-1.095-1.427-1.669-3.811-2.126-6.175
				l-3.979-20.595c-1.301-6.735-4.071-9.738-8.981-9.738c-0.931,0-1.931,0.106-3.058,0.324l-1.62,0.313
				c-6.906,1.334-9.199,5.289-7.666,13.222l4.918,25.455c2.097,10.852,9.435,17.075,20.133,17.075c1.845,0,3.782-0.193,5.758-0.575
				l9.874-1.908c6.102-1.179,10.717-3.962,13.47-8.095c1.169,1.709,3.049,2.795,5.383,3.06l1.84,0.209
				c0.343,0.039,0.686,0.059,1.021,0.059c4.099,0,6.971-2.867,7.495-7.482l1.189-10.475c0.384-3.38,1.909-4.58,3.099-4.58
				c0.071,0,0.142,0.004,0.213,0.012c0.51,0.058,0.851,0.291,1.072,0.732c0.262,0.521,0.344,1.285,0.239,2.21l-1.43,12.598
				c-0.292,2.57,0.225,4.79,1.494,6.42c1.195,1.535,2.973,2.477,5.142,2.723l1.84,0.209c0.343,0.039,0.687,0.059,1.021,0.059
				c4.099,0,6.971-2.867,7.495-7.482l1.816-15.995c1.11-9.78-4.793-14.884-11.135-15.604c-0.495-0.056-0.997-0.085-1.491-0.085
				c-2.895,0-5.702,0.976-8.067,2.779c-0.667-2.123-2.532-4.067-5.8-4.438l-2.69-0.305c-0.343-0.039-0.686-0.059-1.02-0.059
				c-4.099,0-6.971,2.867-7.495,7.482l-0.415,3.656l-3.404-17.618c-0.503-2.605-1.155-5.258-2.503-7.014
				C59.954,15.383,57.758,14.316,55.357,14.316L55.357,14.316z"/>
		</g>
		<g>
			<radialGradient id="SVGID_23_" cx="33.6768" cy="70.1923" r="44.5204" gradientUnits="userSpaceOnUse">
				<stop  offset="0" style="stop-color:#5ED28C"/>
				<stop  offset="0.0734" style="stop-color:#5ACE94;stop-opacity:0.9266"/>
				<stop  offset="0.703" style="stop-color:#3AB1D5;stop-opacity:0.297"/>
				<stop  offset="1" style="stop-color:#2EA6EE;stop-opacity:0"/>
			</radialGradient>
			<path style="fill:url(#SVGID_23_);" d="M114.944,32.989h-1.852c-3.703,0-6.624,2.422-6.624,7.337v22.01
				c0,4.915,2.921,7.337,6.624,7.337h1.852c3.704,0,6.624-2.422,6.624-7.337v-22.01C121.568,35.411,118.647,32.989,114.944,32.989z"
				/>
			<radialGradient id="SVGID_24_" cx="33.6768" cy="70.1923" r="44.5204" gradientUnits="userSpaceOnUse">
				<stop  offset="0" style="stop-color:#5ED28C"/>
				<stop  offset="0.0734" style="stop-color:#5ACE94;stop-opacity:0.9266"/>
				<stop  offset="0.703" style="stop-color:#3AB1D5;stop-opacity:0.297"/>
				<stop  offset="1" style="stop-color:#2EA6EE;stop-opacity:0"/>
			</radialGradient>
			<path style="fill:url(#SVGID_24_);" d="M114.944,32.989c3.704,0,6.624,2.422,6.624,7.337v22.01c0,4.915-2.92,7.337-6.624,7.337
				h-1.852c-3.703,0-6.624-2.422-6.624-7.337v-22.01c0-4.915,2.921-7.337,6.624-7.337H114.944 M114.944,31.989h-1.852
				c-4.631,0-7.624,3.272-7.624,8.337v22.01c0,5.064,2.993,8.337,7.624,8.337h1.852c4.631,0,7.624-3.272,7.624-8.337v-22.01
				C122.568,35.262,119.575,31.989,114.944,31.989L114.944,31.989z"/>
		</g>
		<g>
			<radialGradient id="SVGID_25_" cx="33.6768" cy="70.1923" r="44.5204" gradientUnits="userSpaceOnUse">
				<stop  offset="0" style="stop-color:#5ED28C"/>
				<stop  offset="0.0734" style="stop-color:#5ACE94;stop-opacity:0.9266"/>
				<stop  offset="0.703" style="stop-color:#3AB1D5;stop-opacity:0.297"/>
				<stop  offset="1" style="stop-color:#2EA6EE;stop-opacity:0"/>
			</radialGradient>
			<path style="fill:url(#SVGID_25_);" d="M126.393,18.162c0-6.463-5.637-11.826-12.375-11.826c-6.876,0-12.376,5.363-12.376,11.826
				c0,6.737,5.5,12.1,12.376,12.1C120.755,30.262,126.393,24.899,126.393,18.162z"/>
			<radialGradient id="SVGID_26_" cx="33.6768" cy="70.1923" r="44.5204" gradientUnits="userSpaceOnUse">
				<stop  offset="0" style="stop-color:#5ED28C"/>
				<stop  offset="0.0734" style="stop-color:#5ACE94;stop-opacity:0.9266"/>
				<stop  offset="0.703" style="stop-color:#3AB1D5;stop-opacity:0.297"/>
				<stop  offset="1" style="stop-color:#2EA6EE;stop-opacity:0"/>
			</radialGradient>
			<path style="fill:url(#SVGID_26_);" d="M114.018,6.336c6.737,0,12.375,5.363,12.375,11.826c0,6.737-5.637,12.1-12.375,12.1
				c-6.876,0-12.376-5.363-12.376-12.1C101.642,11.699,107.142,6.336,114.018,6.336 M114.018,5.336
				c-7.375,0-13.376,5.754-13.376,12.826c0,7.223,6,13.1,13.376,13.1c7.375,0,13.375-5.877,13.375-13.1
				C127.393,11.21,121.268,5.336,114.018,5.336L114.018,5.336z"/>
		</g>
		<g>
			<radialGradient id="SVGID_27_" cx="33.6768" cy="70.1923" r="44.5204" gradientUnits="userSpaceOnUse">
				<stop  offset="0" style="stop-color:#5ED28C"/>
				<stop  offset="0.0734" style="stop-color:#5ACE94;stop-opacity:0.9266"/>
				<stop  offset="0.703" style="stop-color:#3AB1D5;stop-opacity:0.297"/>
				<stop  offset="1" style="stop-color:#2EA6EE;stop-opacity:0"/>
			</radialGradient>
			<path style="fill:url(#SVGID_27_);" d="M247.808,44.011c-1.182-9.472-7.931-12.362-13.374-11.683
				c-3.887,0.485-7.05,2.746-9.022,5.935c-0.512-2.376-2.712-4.471-6.315-4.022l-2.686,0.335c-2.845,0.355-5.037,2.098-5.603,5.126
				c-3.961-7.021-11.48-11.367-20.069-11.367c-12.046,0-21.991,8.545-22.957,21.036c-0.724-0.208-1.513-0.317-2.361-0.317
				c-4.547,0-6.301,1.914-7.737,4.705c-1.675,3.271-3.988,4.228-7.418,4.228c-2.712,0-5.024-0.638-6.699-3.031
				c-1.436-2.073-2.074-5.503-2.074-9.411v-3.031c0-3.748,0.478-7.258,2.074-9.411c1.595-2.154,4.067-3.031,6.779-3.031
				c3.35,0,5.663,1.117,7.418,4.228c1.596,2.871,3.11,4.705,7.737,4.705c4.467,0,7.418-2.951,7.418-8.056
				c0-6.859-6.381-15.633-21.057-15.633h-1.675c-7.737,0-14.995,2.473-20.498,8.295c-5.184,5.503-7.258,12.363-7.258,20.1v0.638
				c0,7.896,2.154,14.676,7.258,20.1c5.584,5.902,12.762,8.295,20.498,8.295h1.675c10.238,0,16.389-4.194,19.179-9.112
				c4.05,6.616,11.374,10.694,19.697,10.694c10.288,0,19.047-6.232,21.987-15.785l0.746,5.976c0.609,4.877,3.806,6.919,7.482,6.46
				l1.837-0.229c3.675-0.458,6.273-3.223,5.665-8.1l-1.305-10.461c-0.511-4.099,1.177-6.105,3.014-6.334
				c1.767-0.221,2.809,1.229,3.083,3.42l1.57,12.581c0.609,4.877,3.807,6.919,7.482,6.46l1.838-0.229
				c3.675-0.459,6.273-3.223,5.665-8.1L247.808,44.011z M190.739,58.787c-2.769,0-4.376-2.768-4.376-7.412
				c0-4.555,1.607-7.323,4.376-7.323c2.768,0,4.375,2.769,4.375,7.323C195.114,56.019,193.507,58.787,190.739,58.787z"/>
			<radialGradient id="SVGID_28_" cx="33.6768" cy="70.1923" r="44.5204" gradientUnits="userSpaceOnUse">
				<stop  offset="0" style="stop-color:#5ED28C"/>
				<stop  offset="0.0734" style="stop-color:#5ACE94;stop-opacity:0.9266"/>
				<stop  offset="0.703" style="stop-color:#3AB1D5;stop-opacity:0.297"/>
				<stop  offset="1" style="stop-color:#2EA6EE;stop-opacity:0"/>
			</radialGradient>
			<path style="fill:url(#SVGID_28_);" d="M151.862,15.316c14.676,0,21.057,8.774,21.057,15.633c0,5.105-2.951,8.056-7.418,8.056
				c-4.627,0-6.141-1.835-7.737-4.705c-1.755-3.111-4.068-4.228-7.418-4.228c-2.712,0-5.185,0.878-6.779,3.031
				c-1.596,2.153-2.074,5.663-2.074,9.411v3.031c0,3.908,0.638,7.338,2.074,9.411c1.675,2.393,3.988,3.031,6.699,3.031
				c3.43,0,5.743-0.957,7.418-4.228c1.436-2.791,3.19-4.705,7.737-4.705c0.848,0,1.637,0.109,2.361,0.317
				c0.966-12.491,10.911-21.036,22.957-21.036c8.589,0,16.108,4.347,20.069,11.367c0.566-3.028,2.758-4.771,5.603-5.126l2.686-0.335
				c0.332-0.041,0.652-0.061,0.96-0.061c3.035,0,4.89,1.925,5.355,4.083c1.971-3.189,5.135-5.45,9.022-5.935
				c0.499-0.062,1.008-0.094,1.523-0.094c5.109,0,10.777,3.174,11.851,11.777l1.993,15.974c0.609,4.877-1.99,7.642-5.665,8.1
				l-1.838,0.229c-0.335,0.042-0.666,0.063-0.991,0.063c-3.245,0-5.937-2.09-6.49-6.523l-1.57-12.581
				c-0.255-2.044-1.178-3.442-2.736-3.442c-0.112,0-0.228,0.007-0.347,0.022c-1.837,0.229-3.525,2.235-3.014,6.334l1.305,10.461
				c0.609,4.877-1.99,7.642-5.665,8.1l-1.837,0.229c-0.335,0.042-0.666,0.063-0.992,0.063c-3.245,0-5.937-2.09-6.49-6.523
				l-0.746-5.976c-2.939,9.553-11.699,15.785-21.987,15.785c-8.324,0-15.647-4.078-19.697-10.694
				c-2.791,4.918-8.942,9.112-19.179,9.112h-1.675c-7.737,0-14.915-2.393-20.498-8.295c-5.105-5.424-7.258-12.203-7.258-20.1v-0.638
				c0-7.737,2.074-14.596,7.258-20.1c5.503-5.822,12.762-8.295,20.498-8.295H151.862 M190.739,58.787
				c2.768,0,4.375-2.768,4.375-7.412c0-4.555-1.607-7.323-4.375-7.323c-2.769,0-4.376,2.769-4.376,7.323
				C186.363,56.019,187.97,58.787,190.739,58.787 M151.862,14.316h-1.675c-8.563,0-15.902,2.977-21.225,8.608
				c-5.068,5.38-7.532,12.179-7.532,20.786v0.638c0,8.602,2.463,15.401,7.53,20.785c5.405,5.714,12.546,8.61,21.226,8.61h1.675
				c8.57,0,15.462-2.995,19.195-8.274c4.407,6.2,11.649,9.856,19.681,9.856c9.31,0,17.506-5.028,21.47-12.845l0.269,2.16
				c0.569,4.564,3.436,7.399,7.482,7.399c0.365,0,0.74-0.024,1.116-0.071l1.837-0.229c2.166-0.27,3.933-1.232,5.111-2.78
				c1.251-1.645,1.743-3.87,1.423-6.436l-1.305-10.461c-0.42-3.367,0.775-5.047,2.146-5.218c0.076-0.01,0.151-0.014,0.223-0.014
				c1.284,0,1.647,1.795,1.743,2.566l1.57,12.581c0.569,4.564,3.437,7.399,7.482,7.399c0.365,0,0.74-0.024,1.115-0.07l1.838-0.229
				c2.166-0.27,3.933-1.232,5.111-2.78c1.251-1.645,1.743-3.87,1.422-6.436L248.8,43.887c-1.164-9.329-7.398-12.654-12.843-12.654
				c-0.55,0-1.104,0.034-1.647,0.102c-3.439,0.429-6.456,2.136-8.659,4.862c-1.01-1.678-2.895-3.017-5.594-3.017
				c-0.352,0-0.717,0.023-1.084,0.069l-2.686,0.335c-2.629,0.328-4.661,1.707-5.745,3.812c-4.386-6.338-11.639-10.061-19.803-10.061
				c-6.9,0-12.993,2.644-17.317,7.052c0.326-1.032,0.497-2.185,0.497-3.439c0-4.047-1.954-8.106-5.36-11.136
				C165.739,17.306,160.554,14.316,151.862,14.316L151.862,14.316z M150.266,56.988c-2.844,0-4.602-0.779-5.88-2.605
				c-1.22-1.762-1.893-4.902-1.893-8.838v-3.031c0-4.169,0.632-7.135,1.877-8.816c1.607-2.171,4.137-2.627,5.976-2.627
				c3.16,0,5.056,1.077,6.547,3.719c1.584,2.85,3.328,5.214,8.608,5.214c1.729,0,3.251-0.406,4.508-1.157
				c-1.616,2.753-2.696,5.897-3.112,9.313c-0.477-0.07-0.971-0.106-1.477-0.106c-4.918,0-7.005,2.098-8.626,5.248
				C155.419,55.99,153.65,56.988,150.266,56.988L150.266,56.988z M190.739,57.787c-3.133,0-3.376-4.907-3.376-6.412
				c0-1.483,0.243-6.323,3.376-6.323c3.132,0,3.375,4.84,3.375,6.323C194.114,52.88,193.87,57.787,190.739,57.787L190.739,57.787z"
				/>
		</g>
		<g>
			<radialGradient id="SVGID_29_" cx="33.6768" cy="70.1923" r="44.5204" gradientUnits="userSpaceOnUse">
				<stop  offset="0" style="stop-color:#5ED28C"/>
				<stop  offset="0.0734" style="stop-color:#5ACE94;stop-opacity:0.9266"/>
				<stop  offset="0.703" style="stop-color:#3AB1D5;stop-opacity:0.297"/>
				<stop  offset="1" style="stop-color:#2EA6EE;stop-opacity:0"/>
			</radialGradient>
			<path style="fill:url(#SVGID_29_);" d="M279.49,34.105c-3.877-0.561-7.526,0.783-10.27,3.337
				c0.135-2.427-1.432-5.029-5.027-5.549l-2.679-0.387c-3.666-0.53-6.903,1.449-7.606,6.313l-3.15,21.783
				c-0.703,4.865,1.84,7.679,5.506,8.209l1.833,0.265c3.665,0.53,6.903-1.449,7.606-6.313l1.509-10.433
				c0.591-4.088,2.75-5.576,4.582-5.311c1.763,0.255,2.384,1.928,2.068,4.114l-1.814,12.548c-0.703,4.865,1.841,7.679,5.506,8.209
				l1.834,0.265c3.665,0.53,6.902-1.449,7.606-6.313l2.304-15.932C290.662,39.463,284.918,34.89,279.49,34.105z"/>
			<radialGradient id="SVGID_30_" cx="33.6768" cy="70.1923" r="44.5204" gradientUnits="userSpaceOnUse">
				<stop  offset="0" style="stop-color:#5ED28C"/>
				<stop  offset="0.0734" style="stop-color:#5ACE94;stop-opacity:0.9266"/>
				<stop  offset="0.703" style="stop-color:#3AB1D5;stop-opacity:0.297"/>
				<stop  offset="1" style="stop-color:#2EA6EE;stop-opacity:0"/>
			</radialGradient>
			<path style="fill:url(#SVGID_30_);" d="M260.377,31.423c0.372,0,0.752,0.028,1.136,0.084l2.679,0.387
				c3.594,0.52,5.161,3.122,5.027,5.549c2.329-2.167,5.31-3.463,8.528-3.463c0.574,0,1.156,0.041,1.742,0.126
				c5.428,0.785,11.173,5.358,9.807,14.805l-2.304,15.932c-0.63,4.355-3.29,6.397-6.47,6.397c-0.372,0-0.752-0.028-1.136-0.084
				l-1.834-0.265c-3.665-0.53-6.209-3.345-5.506-8.209l1.814-12.548c0.316-2.185-0.305-3.859-2.068-4.114
				c-0.136-0.02-0.274-0.03-0.413-0.03c-1.732,0-3.622,1.556-4.169,5.341l-1.509,10.433c-0.63,4.355-3.29,6.397-6.47,6.397
				c-0.372,0-0.752-0.028-1.136-0.084l-1.833-0.265c-3.666-0.53-6.209-3.345-5.506-8.209l3.15-21.783
				C254.537,33.465,257.197,31.423,260.377,31.423 M260.377,30.423L260.377,30.423c-4.014,0-6.803,2.712-7.459,7.254l-3.15,21.783
				c-0.37,2.56,0.078,4.794,1.297,6.463c1.147,1.571,2.896,2.567,5.056,2.879l1.833,0.265c0.431,0.062,0.861,0.094,1.279,0.094
				c4.014,0,6.803-2.712,7.46-7.254l1.509-10.433c0.479-3.31,2.012-4.484,3.18-4.484c0.091,0,0.181,0.007,0.27,0.019
				c0.508,0.073,0.841,0.316,1.05,0.765c0.246,0.528,0.305,1.295,0.172,2.216l-1.814,12.548c-0.37,2.559,0.078,4.794,1.297,6.463
				c1.147,1.571,2.896,2.567,5.056,2.879l1.834,0.265c0.431,0.062,0.861,0.094,1.279,0.094c4.014,0,6.803-2.712,7.46-7.254
				l2.304-15.932c0.659-4.558-0.228-8.507-2.565-11.419c-1.96-2.443-4.833-4.047-8.088-4.518c-0.626-0.09-1.26-0.136-1.885-0.136
				c-2.749,0-5.444,0.891-7.75,2.538c-0.601-2.142-2.406-4.143-5.661-4.614l-2.679-0.387
				C261.226,30.454,260.796,30.423,260.377,30.423L260.377,30.423z"/>
		</g>
	</g>
	<g>
		<g>
			<radialGradient id="SVGID_31_" cx="103.1726" cy="17.037" r="44.6055" gradientUnits="userSpaceOnUse">
				<stop  offset="0" style="stop-color:#FBF254"/>
				<stop  offset="0.6653" style="stop-color:#FCB51E;stop-opacity:0.3338"/>
				<stop  offset="0.9987" style="stop-color:#FD9C08;stop-opacity:0"/>
			</radialGradient>
			<path style="fill:url(#SVGID_31_);" d="M94.153,33.837c-3.893-0.442-7.499,1.013-10.164,3.649
				c0.061-2.43-1.585-4.983-5.194-5.393l-2.69-0.305c-3.68-0.418-6.855,1.659-7.409,6.543l-1.152,10.145l-4.643-24.031
				c-0.522-2.7-1.138-5.062-2.314-6.594c-1.604-2.091-4.157-2.878-6.625-2.401l-1.234,0.238c-2.468,0.477-4.544,2.158-5.254,4.696
				c-0.52,1.861-0.213,4.282,0.309,6.982l3.979,20.595c0.522,2.7,0.829,5.121,0.309,6.982c-0.71,2.538-2.786,4.219-5.254,4.696
				l-1.234,0.238c-2.468,0.477-5.021-0.31-6.625-2.401c-1.176-1.533-1.792-3.894-2.314-6.594l-3.979-20.595
				c-1.461-7.56-4.619-9.83-10.868-8.623l-1.62,0.313c-6.248,1.207-8.334,4.491-6.874,12.051l4.918,25.455
				c2.444,12.65,12.223,18.123,24.719,15.708l9.874-1.908c6.35-1.227,11.222-4.277,13.728-9.21c0.829,2.465,2.874,3.873,5.427,4.163
				l1.84,0.209c3.68,0.418,6.855-1.659,7.409-6.543l1.189-10.475c0.466-4.105,2.578-5.657,4.418-5.449
				c1.769,0.201,2.442,1.855,2.193,4.049l-1.43,12.598c-0.554,4.884,2.074,7.619,5.754,8.037l1.84,0.209
				c3.681,0.418,6.855-1.659,7.41-6.543l1.816-15.995C105.484,38.851,99.603,34.456,94.153,33.837z"/>
			<radialGradient id="SVGID_32_" cx="103.1726" cy="17.037" r="44.6055" gradientUnits="userSpaceOnUse">
				<stop  offset="0" style="stop-color:#FBF254"/>
				<stop  offset="0.6653" style="stop-color:#FCB51E;stop-opacity:0.3338"/>
				<stop  offset="0.9987" style="stop-color:#FD9C08;stop-opacity:0"/>
			</radialGradient>
			<path style="fill:url(#SVGID_32_);" d="M55.357,15.316c2,0,3.928,0.838,5.23,2.536c1.177,1.533,1.792,3.894,2.314,6.594
				l4.643,24.031l1.152-10.145c0.508-4.477,3.219-6.595,6.502-6.595c0.298,0,0.601,0.018,0.908,0.052l2.69,0.305
				c3.61,0.41,5.256,2.963,5.194,5.393c2.347-2.322,5.425-3.728,8.785-3.728c0.455,0,0.914,0.026,1.378,0.078
				c5.45,0.619,11.331,5.014,10.254,14.498l-1.816,15.995c-0.508,4.477-3.218,6.595-6.502,6.595c-0.298,0-0.602-0.018-0.908-0.052
				l-1.84-0.209c-3.68-0.418-6.309-3.153-5.754-8.037l1.43-12.598c0.249-2.194-0.423-3.848-2.193-4.049
				c-0.108-0.012-0.216-0.018-0.326-0.018c-1.756,0-3.654,1.603-4.093,5.467l-1.189,10.475c-0.508,4.477-3.218,6.595-6.501,6.595
				c-0.298,0-0.602-0.018-0.908-0.052l-1.84-0.209c-2.553-0.29-4.598-1.698-5.427-4.163c-2.506,4.933-7.378,7.983-13.728,9.21
				l-9.874,1.908c-1.927,0.372-3.787,0.557-5.568,0.557c-9.768,0-17.084-5.565-19.152-16.265l-4.918-25.455
				c-1.461-7.56,0.626-10.843,6.874-12.051l1.62-0.313c1.04-0.201,1.994-0.305,2.869-0.305c4.384,0,6.782,2.626,7.999,8.928
				l3.979,20.595c0.522,2.7,1.138,5.062,2.314,6.594c1.303,1.698,3.23,2.536,5.23,2.536c0.463,0,0.931-0.045,1.395-0.135
				l1.234-0.239c2.468-0.477,4.544-2.158,5.254-4.696c0.52-1.861,0.213-4.282-0.309-6.982l-3.979-20.595
				c-0.522-2.7-0.829-5.121-0.309-6.982c0.71-2.538,2.786-4.219,5.254-4.696l1.234-0.238C54.427,15.361,54.894,15.316,55.357,15.316
				 M55.357,14.316c-0.526,0-1.059,0.051-1.584,0.153l-1.234,0.238c-2.988,0.577-5.242,2.599-6.028,5.409
				c-0.596,2.133-0.213,4.837,0.29,7.441l3.979,20.595c0.457,2.363,0.812,4.789,0.328,6.523c-0.577,2.064-2.252,3.553-4.481,3.984
				l-1.234,0.239c-0.4,0.077-0.806,0.116-1.205,0.116c-1.8,0-3.376-0.762-4.437-2.145c-1.095-1.427-1.669-3.811-2.126-6.175
				l-3.979-20.595c-1.301-6.735-4.071-9.738-8.981-9.738c-0.931,0-1.931,0.106-3.058,0.324l-1.62,0.313
				c-6.906,1.334-9.199,5.289-7.666,13.222l4.918,25.455c2.097,10.852,9.435,17.075,20.133,17.075c1.845,0,3.782-0.193,5.758-0.575
				l9.874-1.908c6.102-1.179,10.717-3.962,13.47-8.095c1.169,1.709,3.049,2.795,5.383,3.06l1.84,0.209
				c0.343,0.039,0.686,0.059,1.021,0.059c4.099,0,6.971-2.867,7.495-7.482l1.189-10.475c0.384-3.38,1.909-4.58,3.099-4.58
				c0.071,0,0.142,0.004,0.213,0.012c0.51,0.058,0.851,0.291,1.072,0.732c0.262,0.521,0.344,1.285,0.239,2.21l-1.43,12.598
				c-0.292,2.57,0.225,4.79,1.494,6.42c1.195,1.535,2.973,2.477,5.142,2.723l1.84,0.209c0.343,0.039,0.687,0.059,1.021,0.059
				c4.099,0,6.971-2.867,7.495-7.482l1.816-15.995c1.11-9.78-4.793-14.884-11.135-15.604c-0.495-0.056-0.997-0.085-1.491-0.085
				c-2.895,0-5.702,0.976-8.067,2.779c-0.667-2.123-2.532-4.067-5.8-4.438l-2.69-0.305c-0.343-0.039-0.686-0.059-1.02-0.059
				c-4.099,0-6.971,2.867-7.495,7.482l-0.415,3.656l-3.404-17.618c-0.503-2.605-1.155-5.258-2.503-7.014
				C59.954,15.383,57.758,14.316,55.357,14.316L55.357,14.316z"/>
		</g>
		<g>
			<radialGradient id="SVGID_33_" cx="103.1726" cy="17.037" r="44.6055" gradientUnits="userSpaceOnUse">
				<stop  offset="0" style="stop-color:#FBF254"/>
				<stop  offset="0.6653" style="stop-color:#FCB51E;stop-opacity:0.3338"/>
				<stop  offset="0.9987" style="stop-color:#FD9C08;stop-opacity:0"/>
			</radialGradient>
			<path style="fill:url(#SVGID_33_);" d="M114.944,32.989h-1.852c-3.703,0-6.624,2.422-6.624,7.337v22.01
				c0,4.915,2.921,7.337,6.624,7.337h1.852c3.704,0,6.624-2.422,6.624-7.337v-22.01C121.568,35.411,118.647,32.989,114.944,32.989z"
				/>
			<radialGradient id="SVGID_34_" cx="103.1726" cy="17.037" r="44.6055" gradientUnits="userSpaceOnUse">
				<stop  offset="0" style="stop-color:#FBF254"/>
				<stop  offset="0.6653" style="stop-color:#FCB51E;stop-opacity:0.3338"/>
				<stop  offset="0.9987" style="stop-color:#FD9C08;stop-opacity:0"/>
			</radialGradient>
			<path style="fill:url(#SVGID_34_);" d="M114.944,32.989c3.704,0,6.624,2.422,6.624,7.337v22.01c0,4.915-2.92,7.337-6.624,7.337
				h-1.852c-3.703,0-6.624-2.422-6.624-7.337v-22.01c0-4.915,2.921-7.337,6.624-7.337H114.944 M114.944,31.989h-1.852
				c-4.631,0-7.624,3.272-7.624,8.337v22.01c0,5.064,2.993,8.337,7.624,8.337h1.852c4.631,0,7.624-3.272,7.624-8.337v-22.01
				C122.568,35.262,119.575,31.989,114.944,31.989L114.944,31.989z"/>
		</g>
		<g>
			<radialGradient id="SVGID_35_" cx="103.1726" cy="17.037" r="44.6055" gradientUnits="userSpaceOnUse">
				<stop  offset="0" style="stop-color:#FBF254"/>
				<stop  offset="0.6653" style="stop-color:#FCB51E;stop-opacity:0.3338"/>
				<stop  offset="0.9987" style="stop-color:#FD9C08;stop-opacity:0"/>
			</radialGradient>
			<path style="fill:url(#SVGID_35_);" d="M126.393,18.162c0-6.463-5.637-11.826-12.375-11.826c-6.876,0-12.376,5.363-12.376,11.826
				c0,6.737,5.5,12.1,12.376,12.1C120.755,30.262,126.393,24.899,126.393,18.162z"/>
			<radialGradient id="SVGID_36_" cx="103.1726" cy="17.037" r="44.6055" gradientUnits="userSpaceOnUse">
				<stop  offset="0" style="stop-color:#FBF254"/>
				<stop  offset="0.6653" style="stop-color:#FCB51E;stop-opacity:0.3338"/>
				<stop  offset="0.9987" style="stop-color:#FD9C08;stop-opacity:0"/>
			</radialGradient>
			<path style="fill:url(#SVGID_36_);" d="M114.018,6.336c6.737,0,12.375,5.363,12.375,11.826c0,6.737-5.637,12.1-12.375,12.1
				c-6.876,0-12.376-5.363-12.376-12.1C101.642,11.699,107.142,6.336,114.018,6.336 M114.018,5.336
				c-7.375,0-13.376,5.754-13.376,12.826c0,7.223,6,13.1,13.376,13.1c7.375,0,13.375-5.877,13.375-13.1
				C127.393,11.21,121.268,5.336,114.018,5.336L114.018,5.336z"/>
		</g>
		<g>
			<radialGradient id="SVGID_37_" cx="103.1726" cy="17.037" r="44.6055" gradientUnits="userSpaceOnUse">
				<stop  offset="0" style="stop-color:#FBF254"/>
				<stop  offset="0.6653" style="stop-color:#FCB51E;stop-opacity:0.3338"/>
				<stop  offset="0.9987" style="stop-color:#FD9C08;stop-opacity:0"/>
			</radialGradient>
			<path style="fill:url(#SVGID_37_);" d="M247.808,44.011c-1.182-9.472-7.931-12.362-13.374-11.683
				c-3.887,0.485-7.05,2.746-9.022,5.935c-0.512-2.376-2.712-4.471-6.315-4.022l-2.686,0.335c-2.845,0.355-5.037,2.098-5.603,5.126
				c-3.961-7.021-11.48-11.367-20.069-11.367c-12.046,0-21.991,8.545-22.957,21.036c-0.724-0.208-1.513-0.317-2.361-0.317
				c-4.547,0-6.301,1.914-7.737,4.705c-1.675,3.271-3.988,4.228-7.418,4.228c-2.712,0-5.024-0.638-6.699-3.031
				c-1.436-2.073-2.074-5.503-2.074-9.411v-3.031c0-3.748,0.478-7.258,2.074-9.411c1.595-2.154,4.067-3.031,6.779-3.031
				c3.35,0,5.663,1.117,7.418,4.228c1.596,2.871,3.11,4.705,7.737,4.705c4.467,0,7.418-2.951,7.418-8.056
				c0-6.859-6.381-15.633-21.057-15.633h-1.675c-7.737,0-14.995,2.473-20.498,8.295c-5.184,5.503-7.258,12.363-7.258,20.1v0.638
				c0,7.896,2.154,14.676,7.258,20.1c5.584,5.902,12.762,8.295,20.498,8.295h1.675c10.238,0,16.389-4.194,19.179-9.112
				c4.05,6.616,11.374,10.694,19.697,10.694c10.288,0,19.047-6.232,21.987-15.785l0.746,5.976c0.609,4.877,3.806,6.919,7.482,6.46
				l1.837-0.229c3.675-0.458,6.273-3.223,5.665-8.1l-1.305-10.461c-0.511-4.099,1.177-6.105,3.014-6.334
				c1.767-0.221,2.809,1.229,3.083,3.42l1.57,12.581c0.609,4.877,3.807,6.919,7.482,6.46l1.838-0.229
				c3.675-0.459,6.273-3.223,5.665-8.1L247.808,44.011z M190.739,58.787c-2.769,0-4.376-2.768-4.376-7.412
				c0-4.555,1.607-7.323,4.376-7.323c2.768,0,4.375,2.769,4.375,7.323C195.114,56.019,193.507,58.787,190.739,58.787z"/>
			<radialGradient id="SVGID_38_" cx="103.1726" cy="17.037" r="44.6055" gradientUnits="userSpaceOnUse">
				<stop  offset="0" style="stop-color:#FBF254"/>
				<stop  offset="0.6653" style="stop-color:#FCB51E;stop-opacity:0.3338"/>
				<stop  offset="0.9987" style="stop-color:#FD9C08;stop-opacity:0"/>
			</radialGradient>
			<path style="fill:url(#SVGID_38_);" d="M151.862,15.316c14.676,0,21.057,8.774,21.057,15.633c0,5.105-2.951,8.056-7.418,8.056
				c-4.627,0-6.141-1.835-7.737-4.705c-1.755-3.111-4.068-4.228-7.418-4.228c-2.712,0-5.185,0.878-6.779,3.031
				c-1.596,2.153-2.074,5.663-2.074,9.411v3.031c0,3.908,0.638,7.338,2.074,9.411c1.675,2.393,3.988,3.031,6.699,3.031
				c3.43,0,5.743-0.957,7.418-4.228c1.436-2.791,3.19-4.705,7.737-4.705c0.848,0,1.637,0.109,2.361,0.317
				c0.966-12.491,10.911-21.036,22.957-21.036c8.589,0,16.108,4.347,20.069,11.367c0.566-3.028,2.758-4.771,5.603-5.126l2.686-0.335
				c0.332-0.041,0.652-0.061,0.96-0.061c3.035,0,4.89,1.925,5.355,4.083c1.971-3.189,5.135-5.45,9.022-5.935
				c0.499-0.062,1.008-0.094,1.523-0.094c5.109,0,10.777,3.174,11.851,11.777l1.993,15.974c0.609,4.877-1.99,7.642-5.665,8.1
				l-1.838,0.229c-0.335,0.042-0.666,0.063-0.991,0.063c-3.245,0-5.937-2.09-6.49-6.523l-1.57-12.581
				c-0.255-2.044-1.178-3.442-2.736-3.442c-0.112,0-0.228,0.007-0.347,0.022c-1.837,0.229-3.525,2.235-3.014,6.334l1.305,10.461
				c0.609,4.877-1.99,7.642-5.665,8.1l-1.837,0.229c-0.335,0.042-0.666,0.063-0.992,0.063c-3.245,0-5.937-2.09-6.49-6.523
				l-0.746-5.976c-2.939,9.553-11.699,15.785-21.987,15.785c-8.324,0-15.647-4.078-19.697-10.694
				c-2.791,4.918-8.942,9.112-19.179,9.112h-1.675c-7.737,0-14.915-2.393-20.498-8.295c-5.105-5.424-7.258-12.203-7.258-20.1v-0.638
				c0-7.737,2.074-14.596,7.258-20.1c5.503-5.822,12.762-8.295,20.498-8.295H151.862 M190.739,58.787
				c2.768,0,4.375-2.768,4.375-7.412c0-4.555-1.607-7.323-4.375-7.323c-2.769,0-4.376,2.769-4.376,7.323
				C186.363,56.019,187.97,58.787,190.739,58.787 M151.862,14.316h-1.675c-8.563,0-15.902,2.977-21.225,8.608
				c-5.068,5.38-7.532,12.179-7.532,20.786v0.638c0,8.602,2.463,15.401,7.53,20.785c5.405,5.714,12.546,8.61,21.226,8.61h1.675
				c8.57,0,15.462-2.995,19.195-8.274c4.407,6.2,11.649,9.856,19.681,9.856c9.31,0,17.506-5.028,21.47-12.845l0.269,2.16
				c0.569,4.564,3.436,7.399,7.482,7.399c0.365,0,0.74-0.024,1.116-0.071l1.837-0.229c2.166-0.27,3.933-1.232,5.111-2.78
				c1.251-1.645,1.743-3.87,1.423-6.436l-1.305-10.461c-0.42-3.367,0.775-5.047,2.146-5.218c0.076-0.01,0.151-0.014,0.223-0.014
				c1.284,0,1.647,1.795,1.743,2.566l1.57,12.581c0.569,4.564,3.437,7.399,7.482,7.399c0.365,0,0.74-0.024,1.115-0.07l1.838-0.229
				c2.166-0.27,3.933-1.232,5.111-2.78c1.251-1.645,1.743-3.87,1.422-6.436L248.8,43.887c-1.164-9.329-7.398-12.654-12.843-12.654
				c-0.55,0-1.104,0.034-1.647,0.102c-3.439,0.429-6.456,2.136-8.659,4.862c-1.01-1.678-2.895-3.017-5.594-3.017
				c-0.352,0-0.717,0.023-1.084,0.069l-2.686,0.335c-2.629,0.328-4.661,1.707-5.745,3.812c-4.386-6.338-11.639-10.061-19.803-10.061
				c-6.9,0-12.993,2.644-17.317,7.052c0.326-1.032,0.497-2.185,0.497-3.439c0-4.047-1.954-8.106-5.36-11.136
				C165.739,17.306,160.554,14.316,151.862,14.316L151.862,14.316z M150.266,56.988c-2.844,0-4.602-0.779-5.88-2.605
				c-1.22-1.762-1.893-4.902-1.893-8.838v-3.031c0-4.169,0.632-7.135,1.877-8.816c1.607-2.171,4.137-2.627,5.976-2.627
				c3.16,0,5.056,1.077,6.547,3.719c1.584,2.85,3.328,5.214,8.608,5.214c1.729,0,3.251-0.406,4.508-1.157
				c-1.616,2.753-2.696,5.897-3.112,9.313c-0.477-0.07-0.971-0.106-1.477-0.106c-4.918,0-7.005,2.098-8.626,5.248
				C155.419,55.99,153.65,56.988,150.266,56.988L150.266,56.988z M190.739,57.787c-3.133,0-3.376-4.907-3.376-6.412
				c0-1.483,0.243-6.323,3.376-6.323c3.132,0,3.375,4.84,3.375,6.323C194.114,52.88,193.87,57.787,190.739,57.787L190.739,57.787z"
				/>
		</g>
		<g>
			<radialGradient id="SVGID_39_" cx="103.1726" cy="17.037" r="44.6055" gradientUnits="userSpaceOnUse">
				<stop  offset="0" style="stop-color:#FBF254"/>
				<stop  offset="0.6653" style="stop-color:#FCB51E;stop-opacity:0.3338"/>
				<stop  offset="0.9987" style="stop-color:#FD9C08;stop-opacity:0"/>
			</radialGradient>
			<path style="fill:url(#SVGID_39_);" d="M279.49,34.105c-3.877-0.561-7.526,0.783-10.27,3.337
				c0.135-2.427-1.432-5.029-5.027-5.549l-2.679-0.387c-3.666-0.53-6.903,1.449-7.606,6.313l-3.15,21.783
				c-0.703,4.865,1.84,7.679,5.506,8.209l1.833,0.265c3.665,0.53,6.903-1.449,7.606-6.313l1.509-10.433
				c0.591-4.088,2.75-5.576,4.582-5.311c1.763,0.255,2.384,1.928,2.068,4.114l-1.814,12.548c-0.703,4.865,1.841,7.679,5.506,8.209
				l1.834,0.265c3.665,0.53,6.902-1.449,7.606-6.313l2.304-15.932C290.662,39.463,284.918,34.89,279.49,34.105z"/>
			<radialGradient id="SVGID_40_" cx="103.1726" cy="17.037" r="44.6055" gradientUnits="userSpaceOnUse">
				<stop  offset="0" style="stop-color:#FBF254"/>
				<stop  offset="0.6653" style="stop-color:#FCB51E;stop-opacity:0.3338"/>
				<stop  offset="0.9987" style="stop-color:#FD9C08;stop-opacity:0"/>
			</radialGradient>
			<path style="fill:url(#SVGID_40_);" d="M260.377,31.423c0.372,0,0.752,0.028,1.136,0.084l2.679,0.387
				c3.594,0.52,5.161,3.122,5.027,5.549c2.329-2.167,5.31-3.463,8.528-3.463c0.574,0,1.156,0.041,1.742,0.126
				c5.428,0.785,11.173,5.358,9.807,14.805l-2.304,15.932c-0.63,4.355-3.29,6.397-6.47,6.397c-0.372,0-0.752-0.028-1.136-0.084
				l-1.834-0.265c-3.665-0.53-6.209-3.345-5.506-8.209l1.814-12.548c0.316-2.185-0.305-3.859-2.068-4.114
				c-0.136-0.02-0.274-0.03-0.413-0.03c-1.732,0-3.622,1.556-4.169,5.341l-1.509,10.433c-0.63,4.355-3.29,6.397-6.47,6.397
				c-0.372,0-0.752-0.028-1.136-0.084l-1.833-0.265c-3.666-0.53-6.209-3.345-5.506-8.209l3.15-21.783
				C254.537,33.465,257.197,31.423,260.377,31.423 M260.377,30.423L260.377,30.423c-4.014,0-6.803,2.712-7.459,7.254l-3.15,21.783
				c-0.37,2.56,0.078,4.794,1.297,6.463c1.147,1.571,2.896,2.567,5.056,2.879l1.833,0.265c0.431,0.062,0.861,0.094,1.279,0.094
				c4.014,0,6.803-2.712,7.46-7.254l1.509-10.433c0.479-3.31,2.012-4.484,3.18-4.484c0.091,0,0.181,0.007,0.27,0.019
				c0.508,0.073,0.841,0.316,1.05,0.765c0.246,0.528,0.305,1.295,0.172,2.216l-1.814,12.548c-0.37,2.559,0.078,4.794,1.297,6.463
				c1.147,1.571,2.896,2.567,5.056,2.879l1.834,0.265c0.431,0.062,0.861,0.094,1.279,0.094c4.014,0,6.803-2.712,7.46-7.254
				l2.304-15.932c0.659-4.558-0.228-8.507-2.565-11.419c-1.96-2.443-4.833-4.047-8.088-4.518c-0.626-0.09-1.26-0.136-1.885-0.136
				c-2.749,0-5.444,0.891-7.75,2.538c-0.601-2.142-2.406-4.143-5.661-4.614l-2.679-0.387
				C261.226,30.454,260.796,30.423,260.377,30.423L260.377,30.423z"/>
		</g>
	</g>
</g>
<line style="fill:none;stroke:#FFFFFF;stroke-width:3;stroke-linecap:round;stroke-miterlimit:10;" x1="17" y1="30.262" x2="23" y2="60"/>
<line style="fill:none;stroke:#FFFFFF;stroke-width:3;stroke-linecap:round;stroke-miterlimit:10;" x1="50.5" y1="22.333" x2="55.333" y2="48.167"/>
<line style="fill:none;stroke:#FFFFFF;stroke-width:3;stroke-linecap:round;stroke-miterlimit:10;" x1="110.667" y1="39.167" x2="110.333" y2="57.5"/>
<circle style="fill:#FFFFFF;" cx="109.667" cy="12.167" r="1.833"/>
<path style="fill:none;stroke:#FFFFFF;stroke-width:3;stroke-linecap:round;stroke-miterlimit:10;" d="M127.833,34.333
	c0,0,3.833-14.667,22.167-16.034"/>
<path style="fill:none;stroke:#FFFFFF;stroke-width:3;stroke-linecap:round;stroke-miterlimit:10;" d="M173.167,41.333
	c0,0,6.333-11.654,19.5-9.911"/>
<path style="fill:none;stroke:#FFFFFF;stroke-width:3;stroke-linecap:round;stroke-miterlimit:10;" d="M271.5,39.5
	c0,0,5.833-4.167,10.833-1.333"/>
<path style="fill:none;stroke:#FFFFFF;stroke-width:3;stroke-linecap:round;stroke-miterlimit:10;" d="M228.5,39.5
	c0,0,3-5,9.333-4.333"/>
<path style="fill:none;stroke:#FFFFFF;stroke-width:3;stroke-linecap:round;stroke-miterlimit:10;" d="M189,62
	c0,0,6.667,0.667,8.833-4.333"/>
<path style="fill:none;stroke:#FFFFFF;stroke-width:3;stroke-linecap:round;stroke-miterlimit:10;" d="M148.333,60.667
	c0,0,8.333,2.167,12-5.167"/>
<path style="fill:none;stroke:#FFFFFF;stroke-width:3;stroke-linecap:round;stroke-miterlimit:10;" d="M85.5,41.667
	c0,0,3.624-6.333,10.667-3.5"/>
</svg>
